ISO-10303-21;
HEADER;
FILE_DESCRIPTION (( 'STEP AP203' ),
    '1' );
FILE_NAME ('读卡器边框.STEP',
    '2024-11-10T07:41:44',
    ( 'XM' ),
    ( '' ),
    'SwSTEP 2.0',
    'SolidWorks 2020',
    '' );
FILE_SCHEMA (( 'CONFIG_CONTROL_DESIGN' ));
ENDSEC;

DATA;
#1 = VECTOR ( 'NONE', #372, 1000.000000000000000 ) ;
#2 = CARTESIAN_POINT ( 'NONE',  ( 50.80010160020333387, -82.42316484632964091, 5.000000000000000000 ) ) ;
#3 = EDGE_CURVE ( 'NONE', #1123, #308, #1077, .T. ) ;
#4 = CIRCLE ( 'NONE', #945, 3.175010293012453744 ) ;
#5 = CIRCLE ( 'NONE', #451, 3.175010293012445750 ) ;
#6 = VERTEX_POINT ( 'NONE', #603 ) ;
#7 = FACE_OUTER_BOUND ( 'NONE', #339, .T. ) ;
#8 = CC_DESIGN_APPROVAL ( #568, ( #53 ) ) ;
#9 = CARTESIAN_POINT ( 'NONE',  ( 0.000000000000000000, -3.175006350012608003, 5.000000000000000000 ) ) ;
#10 = EDGE_CURVE ( 'NONE', #1123, #213, #704, .T. ) ;
#11 = ORIENTED_EDGE ( 'NONE', *, *, #635, .F. ) ;
#12 = EDGE_CURVE ( 'NONE', #36, #714, #67, .T. ) ;
#13 = DIRECTION ( 'NONE',  ( -1.000000000000000000, 0.000000000000000000, 0.000000000000000000 ) ) ;
#14 = EDGE_LOOP ( 'NONE', ( #1050, #670, #1151, #872 ) ) ;
#15 = CARTESIAN_POINT ( 'NONE',  ( 53.97699900737234913, 0.000000000000000000, 0.000000000000000000 ) ) ;
#16 = EDGE_CURVE ( 'NONE', #185, #1182, #596, .T. ) ;
#17 = ORIENTED_EDGE ( 'NONE', *, *, #344, .T. ) ;
#18 = DIRECTION ( 'NONE',  ( -1.000000000000000000, 0.000000000000000000, 0.000000000000000000 ) ) ;
#19 = VECTOR ( 'NONE', #1136, 1000.000000000000000 ) ;
#20 = EDGE_LOOP ( 'NONE', ( #1186, #784, #805, #1179 ) ) ;
#21 = ORIENTED_EDGE ( 'NONE', *, *, #1178, .T. ) ;
#22 = VECTOR ( 'NONE', #540, 1000.000000000000000 ) ;
#23 = DIRECTION ( 'NONE',  ( 1.000000000000000000, 0.000000000000000000, 0.000000000000000000 ) ) ;
#24 = VERTEX_POINT ( 'NONE', #877 ) ;
#25 = VECTOR ( 'NONE', #175, 1000.000000000000000 ) ;
#26 = CYLINDRICAL_SURFACE ( 'NONE', #289, 3.175010293012445750 ) ;
#27 = ADVANCED_FACE ( 'NONE', ( #50 ), #437, .F. ) ;
#28 = DIRECTION ( 'NONE',  ( -0.000000000000000000, -0.000000000000000000, -1.000000000000000000 ) ) ;
#29 = VERTEX_POINT ( 'NONE', #116 ) ;
#30 = DIRECTION ( 'NONE',  ( -0.000000000000000000, -0.000000000000000000, -1.000000000000000000 ) ) ;
#31 = FACE_OUTER_BOUND ( 'NONE', #20, .T. ) ;
#32 = ORIENTED_EDGE ( 'NONE', *, *, #173, .T. ) ;
#33 = VERTEX_POINT ( 'NONE', #618 ) ;
#34 = DIRECTION ( 'NONE',  ( -0.000000000000000000, 0.000000000000000000, 1.000000000000000000 ) ) ;
#35 = EDGE_CURVE ( 'NONE', #498, #185, #89, .T. ) ;
#36 = VERTEX_POINT ( 'NONE', #139 ) ;
#37 = FACE_OUTER_BOUND ( 'NONE', #524, .T. ) ;
#38 = DATE_AND_TIME ( #516, #1112 ) ;
#39 = ORIENTED_EDGE ( 'NONE', *, *, #165, .F. ) ;
#40 = ORIENTED_EDGE ( 'NONE', *, *, #379, .T. ) ;
#41 = ORIENTED_EDGE ( 'NONE', *, *, #994, .F. ) ;
#42 = DIRECTION ( 'NONE',  ( -5.551115123125777969E-15, -1.000000000000000000, 0.000000000000000000 ) ) ;
#43 = ORIENTED_EDGE ( 'NONE', *, *, #1213, .F. ) ;
#44 = CC_DESIGN_PERSON_AND_ORGANIZATION_ASSIGNMENT ( #46, #813, ( #335 ) ) ;
#45 = FACE_OUTER_BOUND ( 'NONE', #475, .T. ) ;
#46 = PERSON_AND_ORGANIZATION ( #645, #851 ) ;
#47 = EDGE_LOOP ( 'NONE', ( #1066, #499 ) ) ;
#48 = VECTOR ( 'NONE', #1056, 1000.000000000000000 ) ;
#49 = VECTOR ( 'NONE', #42, 1000.000000000000000 ) ;
#50 = FACE_OUTER_BOUND ( 'NONE', #679, .T. ) ;
#51 = VECTOR ( 'NONE', #491, 1000.000000000000000 ) ;
#52 = FACE_OUTER_BOUND ( 'NONE', #683, .T. ) ;
#53 = SECURITY_CLASSIFICATION ( '', '', #1196 ) ;
#54 = DIRECTION ( 'NONE',  ( 1.000000000000000000, 0.000000000000000000, 0.000000000000000000 ) ) ;
#55 = DATE_AND_TIME ( #244, #292 ) ;
#56 = VERTEX_POINT ( 'NONE', #224 ) ;
#57 = PERSON_AND_ORGANIZATION ( #645, #851 ) ;
#58 = EDGE_CURVE ( 'NONE', #287, #1032, #900, .T. ) ;
#59 = DIRECTION ( 'NONE',  ( 1.466221957335724087E-16, 1.000000000000000000, 0.000000000000000000 ) ) ;
#60 = DIRECTION ( 'NONE',  ( 0.000000000000000000, -0.000000000000000000, -1.000000000000000000 ) ) ;
#61 = DIRECTION ( 'NONE',  ( -0.000000000000000000, -0.000000000000000000, -1.000000000000000000 ) ) ;
#62 = ORIENTED_EDGE ( 'NONE', *, *, #279, .F. ) ;
#63 = DIRECTION ( 'NONE',  ( 1.000000000000000000, 0.000000000000000000, 0.000000000000000000 ) ) ;
#64 = EDGE_CURVE ( 'NONE', #428, #1029, #816, .T. ) ;
#65 = FACE_BOUND ( 'NONE', #1223, .T. ) ;
#66 = DIRECTION ( 'NONE',  ( 1.000000000000000000, 0.000000000000000000, 0.000000000000000000 ) ) ;
#67 = CIRCLE ( 'NONE', #1083, 1.499999999999994449 ) ;
#68 = FACE_OUTER_BOUND ( 'NONE', #1129, .T. ) ;
#69 = AXIS2_PLACEMENT_3D ( 'NONE', #1058, #300, #399 ) ;
#70 = CARTESIAN_POINT ( 'NONE',  ( 0.000000000000000000, -54.67500635001260889, 5.000000000000000000 ) ) ;
#71 = CIRCLE ( 'NONE', #634, 1.499999999999994449 ) ;
#72 = ADVANCED_FACE ( 'NONE', ( #984 ), #1001, .T. ) ;
#73 = DIRECTION ( 'NONE',  ( 0.000000000000000000, -0.000000000000000000, 1.000000000000000000 ) ) ;
#74 = VERTEX_POINT ( 'NONE', #146 ) ;
#75 = DATE_AND_TIME ( #254, #174 ) ;
#76 = DIRECTION ( 'NONE',  ( -0.000000000000000000, -0.000000000000000000, -1.000000000000000000 ) ) ;
#77 = CARTESIAN_POINT ( 'NONE',  ( 40.68974611752537385, -79.92316484632965512, 5.000000000000000000 ) ) ;
#78 = LINE ( 'NONE', #1214, #334 ) ;
#79 = EDGE_CURVE ( 'NONE', #124, #1029, #411, .T. ) ;
#80 = VERTEX_POINT ( 'NONE', #1198 ) ;
#81 = CARTESIAN_POINT ( 'NONE',  ( 50.81935007980136731, -85.60000394073000507, 5.000000000000000000 ) ) ;
#82 = CARTESIAN_POINT ( 'NONE',  ( 1.675006350012608891, -3.175006350012608447, 5.000000000000000000 ) ) ;
#83 = VERTEX_POINT ( 'NONE', #698 ) ;
#84 = CARTESIAN_POINT ( 'NONE',  ( 50.80010160020332677, -7.448422440110376632E-15, 0.000000000000000000 ) ) ;
#85 = APPROVAL ( #347, '未指定' ) ;
#86 = ORIENTED_EDGE ( 'NONE', *, *, #1152, .T. ) ;
#87 = DIRECTION ( 'NONE',  ( 1.000000000000000000, 0.000000000000000000, 0.000000000000000000 ) ) ;
#88 = FACE_OUTER_BOUND ( 'NONE', #1089, .T. ) ;
#89 = CIRCLE ( 'NONE', #327, 3.176897407169025467 ) ;
#90 = AXIS2_PLACEMENT_3D ( 'NONE', #612, #1078, #18 ) ;
#91 = EDGE_LOOP ( 'NONE', ( #342, #1145 ) ) ;
#92 = AXIS2_PLACEMENT_3D ( 'NONE', #1036, #663, #941 ) ;
#93 = APPLICATION_CONTEXT ( 'configuration controlled 3d designs of mechanical parts and assemblies' ) ;
#94 = DIRECTION ( 'NONE',  ( 1.000000000000000000, 0.000000000000000000, 0.000000000000000000 ) ) ;
#95 = VERTEX_POINT ( 'NONE', #121 ) ;
#96 = FACE_BOUND ( 'NONE', #1239, .T. ) ;
#97 = CYLINDRICAL_SURFACE ( 'NONE', #1025, 1.499999999999997780 ) ;
#98 = ADVANCED_FACE ( 'NONE', ( #885 ), #26, .T. ) ;
#99 = CARTESIAN_POINT ( 'NONE',  ( 28.80010160020332322, 0.000000000000000000, 0.000000000000000000 ) ) ;
#100 = VERTEX_POINT ( 'NONE', #1018 ) ;
#101 = LINE ( 'NONE', #294, #110 ) ;
#102 = EDGE_CURVE ( 'NONE', #914, #192, #908, .T. ) ;
#103 = DIRECTION ( 'NONE',  ( -4.368346228775808535E-15, 1.000000000000000000, 0.000000000000000000 ) ) ;
#104 = ORIENTED_EDGE ( 'NONE', *, *, #1237, .F. ) ;
#105 = FACE_OUTER_BOUND ( 'NONE', #880, .T. ) ;
#106 = CC_DESIGN_DATE_AND_TIME_ASSIGNMENT ( #1106, #435, ( #53 ) ) ;
#107 = CIRCLE ( 'NONE', #749, 1.500000000000022204 ) ;
#108 = LINE ( 'NONE', #874, #676 ) ;
#109 = AXIS2_PLACEMENT_3D ( 'NONE', #1046, #682, #693 ) ;
#110 = VECTOR ( 'NONE', #948, 1000.000000000000000 ) ;
#111 = VERTEX_POINT ( 'NONE', #1120 ) ;
#112 = CARTESIAN_POINT ( 'NONE',  ( 3.175006350012608003, -79.24632575192929096, 5.000000000000000000 ) ) ;
#113 = PLANE ( 'NONE',  #588 ) ;
#114 = EDGE_LOOP ( 'NONE', ( #626, #281 ) ) ;
#115 = DIRECTION ( 'NONE',  ( 0.000000000000000000, 1.000000000000000000, -0.000000000000000000 ) ) ;
#116 = CARTESIAN_POINT ( 'NONE',  ( -3.942999837660415841E-06, -3.175006350012608447, 5.000000000000000000 ) ) ;
#117 = CARTESIAN_POINT ( 'NONE',  ( 49.30010160020328414, -3.175006350012608447, 5.000000000000000000 ) ) ;
#118 = ORIENTED_EDGE ( 'NONE', *, *, #835, .F. ) ;
#119 = EDGE_LOOP ( 'NONE', ( #594, #907, #724, #144 ) ) ;
#120 = ORIENTED_EDGE ( 'NONE', *, *, #520, .T. ) ;
#121 = CARTESIAN_POINT ( 'NONE',  ( 3.175006350012608003, -6.350016643025054641, 0.000000000000000000 ) ) ;
#122 = DIRECTION ( 'NONE',  ( 0.000000000000000000, 1.000000000000000000, -0.000000000000000000 ) ) ;
#123 = AXIS2_PLACEMENT_3D ( 'NONE', #838, #559, #942 ) ;
#124 = VERTEX_POINT ( 'NONE', #264 ) ;
#125 = CARTESIAN_POINT ( 'NONE',  ( 40.68974611752536674, -82.42316484632965512, 0.000000000000000000 ) ) ;
#126 = AXIS2_PLACEMENT_3D ( 'NONE', #855, #864, #783 ) ;
#127 = CARTESIAN_POINT ( 'NONE',  ( 3.175006350012608003, 0.000000000000000000, 5.000000000000000000 ) ) ;
#128 = EDGE_LOOP ( 'NONE', ( #460, #995, #464, #332 ) ) ;
#129 = VECTOR ( 'NONE', #262, 1000.000000000000000 ) ;
#130 =( GEOMETRIC_REPRESENTATION_CONTEXT ( 3 ) GLOBAL_UNCERTAINTY_ASSIGNED_CONTEXT ( ( #436 ) ) GLOBAL_UNIT_ASSIGNED_CONTEXT ( ( #708, #1081, #778 ) ) REPRESENTATION_CONTEXT ( 'NONE', 'WORKASPACE' ) );
#131 = DIRECTION ( 'NONE',  ( -0.000000000000000000, -0.000000000000000000, -1.000000000000000000 ) ) ;
#132 = EDGE_CURVE ( 'NONE', #100, #882, #648, .T. ) ;
#133 = DIRECTION ( 'NONE',  ( -0.000000000000000000, -0.000000000000000000, -1.000000000000000000 ) ) ;
#134 = ORIENTED_EDGE ( 'NONE', *, *, #1237, .T. ) ;
#135 = CARTESIAN_POINT ( 'NONE',  ( 0.000000000000000000, -53.67500635001261600, 5.000000000000000000 ) ) ;
#136 = PERSON_AND_ORGANIZATION ( #645, #851 ) ;
#137 = ORIENTED_EDGE ( 'NONE', *, *, #165, .T. ) ;
#138 = EDGE_LOOP ( 'NONE', ( #21, #1100, #690, #1079 ) ) ;
#139 = CARTESIAN_POINT ( 'NONE',  ( 49.30010160020333387, -82.42316484632964091, 0.000000000000000000 ) ) ;
#140 = EDGE_CURVE ( 'NONE', #275, #245, #547, .T. ) ;
#141 = ORIENTED_EDGE ( 'NONE', *, *, #1017, .T. ) ;
#142 = DIRECTION ( 'NONE',  ( 0.000000000000000000, -0.000000000000000000, 1.000000000000000000 ) ) ;
#143 = COORDINATED_UNIVERSAL_TIME_OFFSET ( 8, 0, .AHEAD. ) ;
#144 = ORIENTED_EDGE ( 'NONE', *, *, #865, .T. ) ;
#145 = COORDINATED_UNIVERSAL_TIME_OFFSET ( 8, 0, .AHEAD. ) ;
#146 = CARTESIAN_POINT ( 'NONE',  ( 4.675006350012608003, -3.175006350012608447, 5.000000000000000000 ) ) ;
#147 = CARTESIAN_POINT ( 'NONE',  ( 40.68974611752582149, -2.258734650291459762E-13, 5.000000000000000000 ) ) ;
#148 = CARTESIAN_POINT ( 'NONE',  ( 0.000000000000000000, -3.175006350012608003, 5.000000000000000000 ) ) ;
#149 = APPROVAL_STATUS ( 'not_yet_approved' ) ;
#150 = EDGE_CURVE ( 'NONE', #695, #1032, #485, .T. ) ;
#151 = AXIS2_PLACEMENT_3D ( 'NONE', #669, #950, #858 ) ;
#152 = EDGE_LOOP ( 'NONE', ( #706, #217, #517, #903, #120, #896, #1241, #1197, #1006, #424, #187, #557, #686, #856 ) ) ;
#153 = CIRCLE ( 'NONE', #847, 3.175010293012446638 ) ;
#154 = VECTOR ( 'NONE', #1039, 1000.000000000000000 ) ;
#155 = LINE ( 'NONE', #1014, #688 ) ;
#156 = CARTESIAN_POINT ( 'NONE',  ( 53.97699900737234913, -54.67500635001260889, 0.000000000000000000 ) ) ;
#157 = DIRECTION ( 'NONE',  ( -0.000000000000000000, -0.000000000000000000, -1.000000000000000000 ) ) ;
#158 = VERTEX_POINT ( 'NONE', #821 ) ;
#159 = LINE ( 'NONE', #539, #449 ) ;
#160 = DIRECTION ( 'NONE',  ( 1.000000000000000000, 0.000000000000000000, 0.000000000000000000 ) ) ;
#161 = CARTESIAN_POINT ( 'NONE',  ( 0.000000000000000000, -82.42316484632965512, 0.000000000000000000 ) ) ;
#162 = PRODUCT_RELATED_PRODUCT_CATEGORY ( 'detail', '', ( #299 ) ) ;
#163 = DIRECTION ( 'NONE',  ( -0.000000000000000000, 0.000000000000000000, 1.000000000000000000 ) ) ;
#164 = LINE ( 'NONE', #643, #1208 ) ;
#165 = EDGE_CURVE ( 'NONE', #245, #275, #107, .T. ) ;
#166 = LINE ( 'NONE', #266, #831 ) ;
#167 = ORIENTED_EDGE ( 'NONE', *, *, #1003, .F. ) ;
#168 = AXIS2_PLACEMENT_3D ( 'NONE', #916, #355, #63 ) ;
#169 = CARTESIAN_POINT ( 'NONE',  ( 3.175006350012608447, -3.175006350012608447, 5.000000000000000000 ) ) ;
#170 = VECTOR ( 'NONE', #580, 1000.000000000000000 ) ;
#171 = DIRECTION ( 'NONE',  ( -0.000000000000000000, -0.000000000000000000, -1.000000000000000000 ) ) ;
#172 = AXIS2_PLACEMENT_3D ( 'NONE', #933, #1233, #367 ) ;
#173 = EDGE_CURVE ( 'NONE', #1060, #210, #926, .T. ) ;
#174 = LOCAL_TIME ( 15, 41, 44.00000000000000000, #145 ) ;
#175 = DIRECTION ( 'NONE',  ( -0.000000000000000000, -0.000000000000000000, -1.000000000000000000 ) ) ;
#176 = ORIENTED_EDGE ( 'NONE', *, *, #1040, .T. ) ;
#177 = LINE ( 'NONE', #675, #232 ) ;
#178 = CARTESIAN_POINT ( 'NONE',  ( 52.30010160020332677, -3.175006350012608447, 0.000000000000000000 ) ) ;
#179 = ORIENTED_EDGE ( 'NONE', *, *, #358, .T. ) ;
#180 = ORIENTED_EDGE ( 'NONE', *, *, #994, .T. ) ;
#181 = LINE ( 'NONE', #448, #985 ) ;
#182 = ORIENTED_EDGE ( 'NONE', *, *, #358, .F. ) ;
#183 = CARTESIAN_POINT ( 'NONE',  ( 3.360270170619649697E-13, -76.92316484632988249, 0.000000000000000000 ) ) ;
#184 = CARTESIAN_POINT ( 'NONE',  ( 40.68974611752536674, -82.42316484632965512, 5.000000000000000000 ) ) ;
#185 = VERTEX_POINT ( 'NONE', #638 ) ;
#186 = DIRECTION ( 'NONE',  ( 1.466221957335724087E-16, 1.000000000000000000, 0.000000000000000000 ) ) ;
#187 = ORIENTED_EDGE ( 'NONE', *, *, #10, .F. ) ;
#188 = ADVANCED_FACE ( 'NONE', ( #1216 ), #260, .F. ) ;
#189 = CARTESIAN_POINT ( 'NONE',  ( 28.80010160020332322, -76.92316484632966933, 5.000000000000000000 ) ) ;
#190 = FACE_OUTER_BOUND ( 'NONE', #398, .T. ) ;
#191 = VECTOR ( 'NONE', #988, 1000.000000000000000 ) ;
#192 = VERTEX_POINT ( 'NONE', #1008 ) ;
#193 = VECTOR ( 'NONE', #715, 1000.000000000000000 ) ;
#194 = DIRECTION ( 'NONE',  ( -0.000000000000000000, -0.000000000000000000, -1.000000000000000000 ) ) ;
#195 = ORIENTED_EDGE ( 'NONE', *, *, #635, .T. ) ;
#196 = CARTESIAN_POINT ( 'NONE',  ( 28.80010160020332322, -76.92316484632966933, 0.000000000000000000 ) ) ;
#197 = EDGE_CURVE ( 'NONE', #990, #95, #155, .T. ) ;
#198 = CARTESIAN_POINT ( 'NONE',  ( 52.30010160020332677, -82.42316484632964091, 5.000000000000000000 ) ) ;
#199 = ORIENTED_EDGE ( 'NONE', *, *, #102, .T. ) ;
#200 = FACE_OUTER_BOUND ( 'NONE', #1142, .T. ) ;
#201 = PRODUCT_DEFINITION ( '未知', '', #335, #1093 ) ;
#202 = ADVANCED_FACE ( 'NONE', ( #452 ), #343, .T. ) ;
#203 = CYLINDRICAL_SURFACE ( 'NONE', #109, 1.499999999999997780 ) ;
#204 = ORIENTED_EDGE ( 'NONE', *, *, #263, .F. ) ;
#205 = FACE_OUTER_BOUND ( 'NONE', #1219, .T. ) ;
#206 = EDGE_CURVE ( 'NONE', #882, #473, #159, .T. ) ;
#207 = AXIS2_PLACEMENT_3D ( 'NONE', #975, #1177, #888 ) ;
#208 = LINE ( 'NONE', #9, #1210 ) ;
#209 = AXIS2_PLACEMENT_3D ( 'NONE', #522, #912, #54 ) ;
#210 = VERTEX_POINT ( 'NONE', #737 ) ;
#211 = EDGE_LOOP ( 'NONE', ( #977, #1067, #1225, #400 ) ) ;
#212 = DIRECTION ( 'NONE',  ( -1.000000000000000000, 0.000000000000000000, 0.000000000000000000 ) ) ;
#213 = VERTEX_POINT ( 'NONE', #534 ) ;
#214 = ORIENTED_EDGE ( 'NONE', *, *, #313, .F. ) ;
#215 = DIRECTION ( 'NONE',  ( -0.000000000000000000, -0.000000000000000000, -1.000000000000000000 ) ) ;
#216 = VERTEX_POINT ( 'NONE', #920 ) ;
#217 = ORIENTED_EDGE ( 'NONE', *, *, #501, .T. ) ;
#218 = CARTESIAN_POINT ( 'NONE',  ( 3.175006350012608447, -3.175006350012608447, 5.000000000000000000 ) ) ;
#219 = ORIENTED_EDGE ( 'NONE', *, *, #1085, .F. ) ;
#220 = DIRECTION ( 'NONE',  ( 0.000000000000000000, -0.000000000000000000, 1.000000000000000000 ) ) ;
#221 = CARTESIAN_POINT ( 'NONE',  ( -0.000000000000000000, 3.942999837700000231E-06, 0.000000000000000000 ) ) ;
#222 = ORIENTED_EDGE ( 'NONE', *, *, #822, .F. ) ;
#223 = EDGE_CURVE ( 'NONE', #80, #1245, #226, .T. ) ;
#224 = CARTESIAN_POINT ( 'NONE',  ( 50.80010160020332677, 3.942999837700000231E-06, 0.000000000000000000 ) ) ;
#225 = CARTESIAN_POINT ( 'NONE',  ( 3.175006350012610223, -82.42316484632964091, 0.000000000000000000 ) ) ;
#226 = CIRCLE ( 'NONE', #168, 1.499999999999997780 ) ;
#227 = EDGE_LOOP ( 'NONE', ( #1076, #537, #972, #176 ) ) ;
#228 = CARTESIAN_POINT ( 'NONE',  ( 53.97699900737234913, -82.42316484632965512, 5.000000000000000000 ) ) ;
#229 = VECTOR ( 'NONE', #397, 1000.000000000000000 ) ;
#230 = CARTESIAN_POINT ( 'NONE',  ( 53.97699900737234913, -54.67500635001260889, 5.000000000000000000 ) ) ;
#231 = EDGE_LOOP ( 'NONE', ( #252, #507, #599, #659 ) ) ;
#232 = VECTOR ( 'NONE', #383, 1000.000000000000000 ) ;
#233 = ADVANCED_FACE ( 'NONE', ( #68 ), #832, .T. ) ;
#234 = DIRECTION ( 'NONE',  ( 7.447916607195894673E-16, 1.000000000000000000, 0.000000000000000000 ) ) ;
#235 = EDGE_LOOP ( 'NONE', ( #320, #267, #179, #799 ) ) ;
#236 = DIRECTION ( 'NONE',  ( -0.000000000000000000, 0.000000000000000000, 1.000000000000000000 ) ) ;
#237 = PERSON_AND_ORGANIZATION_ROLE ( 'creator' ) ;
#238 = ORIENTED_EDGE ( 'NONE', *, *, #973, .T. ) ;
#239 = DIRECTION ( 'NONE',  ( -0.000000000000000000, -0.000000000000000000, -1.000000000000000000 ) ) ;
#240 = DIRECTION ( 'NONE',  ( 1.000000000000000000, 0.000000000000000000, 0.000000000000000000 ) ) ;
#241 = ADVANCED_FACE ( 'NONE', ( #88 ), #1037, .F. ) ;
#242 = ORIENTED_EDGE ( 'NONE', *, *, #12, .F. ) ;
#243 = DIRECTION ( 'NONE',  ( -0.000000000000000000, -0.000000000000000000, -1.000000000000000000 ) ) ;
#244 = CALENDAR_DATE ( 2024, 10, 11 ) ;
#245 = VERTEX_POINT ( 'NONE', #378 ) ;
#246 = VERTEX_POINT ( 'NONE', #757 ) ;
#247 = CARTESIAN_POINT ( 'NONE',  ( 50.80010160020333387, -82.42316484632964091, 5.000000000000000000 ) ) ;
#248 = DIRECTION ( 'NONE',  ( 0.000000000000000000, 0.000000000000000000, 1.000000000000000000 ) ) ;
#249 = EDGE_CURVE ( 'NONE', #278, #1097, #463, .T. ) ;
#250 = CARTESIAN_POINT ( 'NONE',  ( 26.98104366549159749, -53.67500635001261600, 0.000000000000000000 ) ) ;
#251 = VECTOR ( 'NONE', #1024, 1000.000000000000000 ) ;
#252 = ORIENTED_EDGE ( 'NONE', *, *, #495, .T. ) ;
#253 = AXIS2_PLACEMENT_3D ( 'NONE', #497, #604, #878 ) ;
#254 = CALENDAR_DATE ( 2024, 10, 11 ) ;
#255 = CIRCLE ( 'NONE', #848, 1.499999999999997780 ) ;
#256 = DIRECTION ( 'NONE',  ( 1.000000000000000000, 0.000000000000000000, 0.000000000000000000 ) ) ;
#257 = AXIS2_PLACEMENT_3D ( 'NONE', #1201, #716, #628 ) ;
#258 = FACE_BOUND ( 'NONE', #1041, .T. ) ;
#259 = CARTESIAN_POINT ( 'NONE',  ( -2.368445048186592350E-15, -3.180010160020173338, 0.000000000000000000 ) ) ;
#260 = PLANE ( 'NONE',  #269 ) ;
#261 = FACE_OUTER_BOUND ( 'NONE', #758, .T. ) ;
#262 = DIRECTION ( 'NONE',  ( 1.000000000000000000, 0.000000000000000000, 0.000000000000000000 ) ) ;
#263 = EDGE_CURVE ( 'NONE', #29, #210, #1125, .T. ) ;
#264 = CARTESIAN_POINT ( 'NONE',  ( 40.68974611752537385, -79.92316484632965512, 0.000000000000000000 ) ) ;
#265 = CARTESIAN_POINT ( 'NONE',  ( 3.175006350012608003, 3.942999837700000231E-06, 5.000000000000000000 ) ) ;
#266 = CARTESIAN_POINT ( 'NONE',  ( 53.97511189321576097, -3.175006350012608003, 5.000000000000000000 ) ) ;
#267 = ORIENTED_EDGE ( 'NONE', *, *, #764, .F. ) ;
#268 = CARTESIAN_POINT ( 'NONE',  ( 3.175006350012610223, -82.42316484632964091, 5.000000000000000000 ) ) ;
#269 = AXIS2_PLACEMENT_3D ( 'NONE', #359, #1022, #642 ) ;
#270 = AXIS2_PLACEMENT_3D ( 'NONE', #426, #527, #248 ) ;
#271 = CARTESIAN_POINT ( 'NONE',  ( 0.000000000000000000, -85.60000394073000507, 5.000000000000000000 ) ) ;
#272 = VECTOR ( 'NONE', #157, 1000.000000000000000 ) ;
#273 = ORIENTED_EDGE ( 'NONE', *, *, #403, .T. ) ;
#274 = DIRECTION ( 'NONE',  ( -1.000000000000000000, 0.000000000000000000, 0.000000000000000000 ) ) ;
#275 = VERTEX_POINT ( 'NONE', #178 ) ;
#276 = DIRECTION ( 'NONE',  ( 0.000000000000000000, -1.000000000000000000, 0.000000000000000000 ) ) ;
#277 = CYLINDRICAL_SURFACE ( 'NONE', #1128, 3.176839094400348174 ) ;
#278 = VERTEX_POINT ( 'NONE', #762 ) ;
#279 = EDGE_CURVE ( 'NONE', #919, #789, #574, .T. ) ;
#280 = DIRECTION ( 'NONE',  ( -0.000000000000000000, 0.000000000000000000, 1.000000000000000000 ) ) ;
#281 = ORIENTED_EDGE ( 'NONE', *, *, #859, .F. ) ;
#282 = DIRECTION ( 'NONE',  ( -0.000000000000000000, -0.000000000000000000, -1.000000000000000000 ) ) ;
#283 = DIRECTION ( 'NONE',  ( -1.000000000000000000, 0.000000000000000000, 0.000000000000000000 ) ) ;
#284 = ORIENTED_EDGE ( 'NONE', *, *, #1048, .T. ) ;
#285 = FACE_OUTER_BOUND ( 'NONE', #211, .T. ) ;
#286 = ADVANCED_FACE ( 'NONE', ( #457 ), #97, .F. ) ;
#287 = VERTEX_POINT ( 'NONE', #82 ) ;
#288 = CARTESIAN_POINT ( 'NONE',  ( 47.62509130719085704, -3.175006350012608003, 5.000000000000000000 ) ) ;
#289 = AXIS2_PLACEMENT_3D ( 'NONE', #792, #511, #893 ) ;
#290 = AXIS2_PLACEMENT_3D ( 'NONE', #218, #133, #800 ) ;
#291 = CARTESIAN_POINT ( 'NONE',  ( 3.175006350012608003, 0.000000000000000000, 0.000000000000000000 ) ) ;
#292 = LOCAL_TIME ( 15, 41, 44.00000000000000000, #143 ) ;
#293 = ORIENTED_EDGE ( 'NONE', *, *, #1143, .T. ) ;
#294 = CARTESIAN_POINT ( 'NONE',  ( 26.98104366549159749, 0.000000000000000000, 5.000000000000000000 ) ) ;
#295 = EDGE_CURVE ( 'NONE', #991, #301, #1141, .T. ) ;
#296 = LINE ( 'NONE', #492, #48 ) ;
#297 = ORIENTED_EDGE ( 'NONE', *, *, #249, .F. ) ;
#298 = ADVANCED_FACE ( 'NONE', ( #190 ), #277, .T. ) ;
#299 = PRODUCT ( '读卡器边框', '读卡器边框', '', ( #997 ) ) ;
#300 = DIRECTION ( 'NONE',  ( -0.000000000000000000, 0.000000000000000000, 1.000000000000000000 ) ) ;
#301 = VERTEX_POINT ( 'NONE', #1031 ) ;
#302 = DIRECTION ( 'NONE',  ( -1.000000000000000000, 0.000000000000000000, 0.000000000000000000 ) ) ;
#303 = CLOSED_SHELL ( 'NONE', ( #512, #544, #692, #321, #1170, #853, #673, #1206, #202, #27, #740, #188, #233, #241, #489, #447, #396, #1227, #98, #873, #72, #1126, #746, #461, #1095, #387, #794, #298, #681, #802, #362, #286, #1220, #1114, #481 ) ) ;
#304 = VECTOR ( 'NONE', #685, 1000.000000000000000 ) ;
#305 = CARTESIAN_POINT ( 'NONE',  ( -0.000000000000000000, -53.67500635001261600, 0.000000000000000000 ) ) ;
#306 = CIRCLE ( 'NONE', #886, 1.500000000000022204 ) ;
#307 = CC_DESIGN_APPROVAL ( #85, ( #335 ) ) ;
#308 = VERTEX_POINT ( 'NONE', #931 ) ;
#309 = LINE ( 'NONE', #15, #51 ) ;
#310 = ORIENTED_EDGE ( 'NONE', *, *, #863, .T. ) ;
#311 = CARTESIAN_POINT ( 'NONE',  ( 0.000000000000000000, 0.000000000000000000, 5.000000000000000000 ) ) ;
#312 = FACE_OUTER_BOUND ( 'NONE', #1101, .T. ) ;
#313 = EDGE_CURVE ( 'NONE', #990, #33, #807, .T. ) ;
#314 = ORIENTED_EDGE ( 'NONE', *, *, #16, .T. ) ;
#315 = DIRECTION ( 'NONE',  ( -1.000000000000000000, 0.000000000000000000, 0.000000000000000000 ) ) ;
#316 = CARTESIAN_POINT ( 'NONE',  ( 53.97699900737234913, -76.92316484632964091, 0.000000000000000000 ) ) ;
#317 = EDGE_LOOP ( 'NONE', ( #204, #771, #602, #32 ) ) ;
#318 = DIRECTION ( 'NONE',  ( 1.000000000000000000, 0.000000000000000000, 0.000000000000000000 ) ) ;
#319 = CARTESIAN_POINT ( 'NONE',  ( 53.97699900737234913, 0.000000000000000000, 5.000000000000000000 ) ) ;
#320 = ORIENTED_EDGE ( 'NONE', *, *, #949, .F. ) ;
#321 = ADVANCED_FACE ( 'NONE', ( #472 ), #1238, .F. ) ;
#322 = CYLINDRICAL_SURFACE ( 'NONE', #370, 3.176839094400355279 ) ;
#323 = DIRECTION ( 'NONE',  ( -0.000000000000000000, 0.000000000000000000, 1.000000000000000000 ) ) ;
#324 = ORIENTED_EDGE ( 'NONE', *, *, #658, .T. ) ;
#325 = FACE_OUTER_BOUND ( 'NONE', #1134, .T. ) ;
#326 = CYLINDRICAL_SURFACE ( 'NONE', #253, 1.500000000000022204 ) ;
#327 = AXIS2_PLACEMENT_3D ( 'NONE', #1176, #974, #318 ) ;
#328 = ORIENTED_EDGE ( 'NONE', *, *, #647, .F. ) ;
#329 = CARTESIAN_POINT ( 'NONE',  ( 0.000000000000000000, -53.67500635001261600, 5.000000000000000000 ) ) ;
#330 = AXIS2_PLACEMENT_3D ( 'NONE', #742, #720, #808 ) ;
#331 = CALENDAR_DATE ( 2024, 10, 11 ) ;
#332 = ORIENTED_EDGE ( 'NONE', *, *, #1017, .F. ) ;
#333 = CC_DESIGN_PERSON_AND_ORGANIZATION_ASSIGNMENT ( #57, #1119, ( #53 ) ) ;
#334 = VECTOR ( 'NONE', #1117, 1000.000000000000000 ) ;
#335 = PRODUCT_DEFINITION_FORMATION_WITH_SPECIFIED_SOURCE ( '任何', '', #299, .NOT_KNOWN. ) ;
#336 = EDGE_CURVE ( 'NONE', #694, #124, #1243, .T. ) ;
#337 = CARTESIAN_POINT ( 'NONE',  ( 1.675006350012608891, -3.175006350012608447, 5.000000000000000000 ) ) ;
#338 = DIRECTION ( 'NONE',  ( -7.447916607195894673E-16, -1.000000000000000000, 0.000000000000000000 ) ) ;
#339 = EDGE_LOOP ( 'NONE', ( #717, #957, #839, #134 ) ) ;
#340 = CARTESIAN_POINT ( 'NONE',  ( 47.62509130719085704, -3.175006350012608003, 0.000000000000000000 ) ) ;
#341 = DATE_AND_TIME ( #331, #870 ) ;
#342 = ORIENTED_EDGE ( 'NONE', *, *, #223, .T. ) ;
#343 = CYLINDRICAL_SURFACE ( 'NONE', #503, 3.175010293012446194 ) ;
#344 = EDGE_CURVE ( 'NONE', #33, #1063, #365, .T. ) ;
#345 = DIRECTION ( 'NONE',  ( 1.000000000000000000, -5.551115123125778758E-15, 0.000000000000000000 ) ) ;
#346 = FACE_OUTER_BOUND ( 'NONE', #623, .T. ) ;
#347 = APPROVAL_STATUS ( 'not_yet_approved' ) ;
#348 = EDGE_LOOP ( 'NONE', ( #273, #324, #672, #614 ) ) ;
#349 = DIRECTION ( 'NONE',  ( 1.000000000000000000, 0.000000000000000000, 0.000000000000000000 ) ) ;
#350 = CARTESIAN_POINT ( 'NONE',  ( 26.98104366549159749, -79.92316484632965512, 5.000000000000000000 ) ) ;
#351 = LINE ( 'NONE', #1016, #25 ) ;
#352 = AXIS2_PLACEMENT_3D ( 'NONE', #930, #543, #256 ) ;
#353 = AXIS2_PLACEMENT_3D ( 'NONE', #1080, #1074, #439 ) ;
#354 = CIRCLE ( 'NONE', #471, 3.176897407169025467 ) ;
#355 = DIRECTION ( 'NONE',  ( -0.000000000000000000, 0.000000000000000000, 1.000000000000000000 ) ) ;
#356 = DIRECTION ( 'NONE',  ( 5.551115123125778758E-15, 1.000000000000000000, 0.000000000000000000 ) ) ;
#357 = DIRECTION ( 'NONE',  ( 1.000000000000000000, 0.000000000000000000, 0.000000000000000000 ) ) ;
#358 = EDGE_CURVE ( 'NONE', #951, #919, #1010, .T. ) ;
#359 = CARTESIAN_POINT ( 'NONE',  ( 0.000000000000000000, -85.60000394073000507, 5.000000000000000000 ) ) ;
#360 = CARTESIAN_POINT ( 'NONE',  ( 3.175006350012608003, 3.942999837700000231E-06, 5.000000000000000000 ) ) ;
#361 = DIRECTION ( 'NONE',  ( 1.000000000000000000, 0.000000000000000000, 0.000000000000000000 ) ) ;
#362 = ADVANCED_FACE ( 'NONE', ( #261 ), #917, .F. ) ;
#363 = EDGE_LOOP ( 'NONE', ( #118, #500, #141, #490 ) ) ;
#364 = FACE_OUTER_BOUND ( 'NONE', #152, .T. ) ;
#365 = LINE ( 'NONE', #747, #251 ) ;
#366 = ORIENTED_EDGE ( 'NONE', *, *, #313, .T. ) ;
#367 = DIRECTION ( 'NONE',  ( 1.000000000000000000, 0.000000000000000000, 0.000000000000000000 ) ) ;
#368 = ORIENTED_EDGE ( 'NONE', *, *, #887, .T. ) ;
#369 = FACE_BOUND ( 'NONE', #703, .T. ) ;
#370 = AXIS2_PLACEMENT_3D ( 'NONE', #606, #421, #315 ) ;
#371 = VECTOR ( 'NONE', #696, 1000.000000000000000 ) ;
#372 = DIRECTION ( 'NONE',  ( -0.000000000000000000, -0.000000000000000000, -1.000000000000000000 ) ) ;
#373 = EDGE_CURVE ( 'NONE', #33, #1069, #164, .T. ) ;
#374 = ORIENTED_EDGE ( 'NONE', *, *, #641, .F. ) ;
#375 = DIRECTION ( 'NONE',  ( -0.000000000000000000, -0.000000000000000000, -1.000000000000000000 ) ) ;
#376 = ORIENTED_EDGE ( 'NONE', *, *, #1162, .T. ) ;
#377 = CARTESIAN_POINT ( 'NONE',  ( 47.62509130719085704, -3.175006350012608003, 5.000000000000000000 ) ) ;
#378 = CARTESIAN_POINT ( 'NONE',  ( 49.30010160020328414, -3.175006350012608447, 0.000000000000000000 ) ) ;
#379 = EDGE_CURVE ( 'NONE', #301, #246, #1009, .T. ) ;
#380 = ORIENTED_EDGE ( 'NONE', *, *, #982, .T. ) ;
#381 = LINE ( 'NONE', #765, #170 ) ;
#382 = EDGE_LOOP ( 'NONE', ( #719, #723, #879, #849, #766, #937, #374, #180, #521, #410, #167 ) ) ;
#383 = DIRECTION ( 'NONE',  ( -0.000000000000000000, -0.000000000000000000, -1.000000000000000000 ) ) ;
#384 = DIRECTION ( 'NONE',  ( -1.000000000000000000, 0.000000000000000000, 0.000000000000000000 ) ) ;
#385 = CC_DESIGN_DATE_AND_TIME_ASSIGNMENT ( #341, #905, ( #201 ) ) ;
#386 = LINE ( 'NONE', #1064, #229 ) ;
#387 = ADVANCED_FACE ( 'NONE', ( #1116 ), #1103, .F. ) ;
#388 = VERTEX_POINT ( 'NONE', #156 ) ;
#389 = CARTESIAN_POINT ( 'NONE',  ( 1.675006350012612444, -82.42316484632964091, 5.000000000000000000 ) ) ;
#390 = AXIS2_PLACEMENT_3D ( 'NONE', #311, #1086, #234 ) ;
#391 = AXIS2_PLACEMENT_3D ( 'NONE', #2, #194, #1155 ) ;
#392 = AXIS2_PLACEMENT_3D ( 'NONE', #546, #739, #94 ) ;
#393 = PLANE ( 'NONE',  #450 ) ;
#394 = CC_DESIGN_APPROVAL ( #776, ( #201 ) ) ;
#395 = VERTEX_POINT ( 'NONE', #535 ) ;
#396 = ADVANCED_FACE ( 'NONE', ( #519 ), #545, .T. ) ;
#397 = DIRECTION ( 'NONE',  ( -0.000000000000000000, -0.000000000000000000, -1.000000000000000000 ) ) ;
#398 = EDGE_LOOP ( 'NONE', ( #563, #104, #569, #980 ) ) ;
#399 = DIRECTION ( 'NONE',  ( 1.000000000000000000, 0.000000000000000000, 0.000000000000000000 ) ) ;
#400 = ORIENTED_EDGE ( 'NONE', *, *, #584, .T. ) ;
#401 = CARTESIAN_POINT ( 'NONE',  ( 3.175006350012608003, 0.000000000000000000, 5.000000000000000000 ) ) ;
#402 = CARTESIAN_POINT ( 'NONE',  ( 28.80010160020332322, 0.000000000000000000, 5.000000000000000000 ) ) ;
#403 = EDGE_CURVE ( 'NONE', #287, #74, #1109, .T. ) ;
#404 = AXIS2_PLACEMENT_3D ( 'NONE', #530, #236, #904 ) ;
#405 = CARTESIAN_POINT ( 'NONE',  ( 40.68974611752537385, -79.92316484632965512, 5.000000000000000000 ) ) ;
#406 = AXIS2_PLACEMENT_3D ( 'NONE', #687, #302, #876 ) ;
#407 = ORIENTED_EDGE ( 'NONE', *, *, #79, .F. ) ;
#408 = ORIENTED_EDGE ( 'NONE', *, *, #469, .F. ) ;
#409 = DIRECTION ( 'NONE',  ( -1.000000000000000000, 0.000000000000000000, 0.000000000000000000 ) ) ;
#410 = ORIENTED_EDGE ( 'NONE', *, *, #863, .F. ) ;
#411 = LINE ( 'NONE', #526, #1229 ) ;
#412 = EDGE_CURVE ( 'NONE', #124, #789, #632, .T. ) ;
#413 = CYLINDRICAL_SURFACE ( 'NONE', #90, 3.175010293012453744 ) ;
#414 = ORIENTED_EDGE ( 'NONE', *, *, #782, .T. ) ;
#415 = DIRECTION ( 'NONE',  ( -0.000000000000000000, -0.000000000000000000, -1.000000000000000000 ) ) ;
#416 = CARTESIAN_POINT ( 'NONE',  ( 0.000000000000000000, 3.942999837700000231E-06, 5.000000000000000000 ) ) ;
#417 = EDGE_LOOP ( 'NONE', ( #866, #753, #493, #636 ) ) ;
#418 = CARTESIAN_POINT ( 'NONE',  ( 3.360270170619649697E-13, -76.92316484632988249, 5.000000000000000000 ) ) ;
#419 = CARTESIAN_POINT ( 'NONE',  ( 4.675006350012608003, -3.175006350012608447, 5.000000000000000000 ) ) ;
#420 = ORIENTED_EDGE ( 'NONE', *, *, #140, .F. ) ;
#421 = DIRECTION ( 'NONE',  ( -0.000000000000000000, -0.000000000000000000, -1.000000000000000000 ) ) ;
#422 = PERSON_AND_ORGANIZATION ( #645, #851 ) ;
#423 = EDGE_CURVE ( 'NONE', #1172, #388, #443, .T. ) ;
#424 = ORIENTED_EDGE ( 'NONE', *, *, #647, .T. ) ;
#425 = CARTESIAN_POINT ( 'NONE',  ( 50.80010160020333387, -82.42316484632964091, 0.000000000000000000 ) ) ;
#426 = CARTESIAN_POINT ( 'NONE',  ( 28.80010160020332322, 0.000000000000000000, 5.000000000000000000 ) ) ;
#427 = AXIS2_PLACEMENT_3D ( 'NONE', #852, #283, #565 ) ;
#428 = VERTEX_POINT ( 'NONE', #350 ) ;
#429 = DIRECTION ( 'NONE',  ( 1.000000000000000000, 0.000000000000000000, 0.000000000000000000 ) ) ;
#430 = VECTOR ( 'NONE', #212, 1000.000000000000000 ) ;
#431 = PERSON_AND_ORGANIZATION_ROLE ( 'design_owner' ) ;
#432 = ORIENTED_EDGE ( 'NONE', *, *, #538, .T. ) ;
#433 = AXIS2_PLACEMENT_3D ( 'NONE', #268, #850, #87 ) ;
#434 = EDGE_CURVE ( 'NONE', #1172, #308, #1096, .T. ) ;
#435 = DATE_TIME_ROLE ( 'classification_date' ) ;
#436 = UNCERTAINTY_MEASURE_WITH_UNIT (LENGTH_MEASURE( 1.000000000000000082E-05 ), #708, 'distance_accuracy_value', 'NONE');
#437 = PLANE ( 'NONE',  #390 ) ;
#438 = LINE ( 'NONE', #901, #589 ) ;
#439 = DIRECTION ( 'NONE',  ( 1.000000000000000000, 0.000000000000000000, 0.000000000000000000 ) ) ;
#440 = APPROVAL_ROLE ( '' ) ;
#441 = VERTEX_POINT ( 'NONE', #1205 ) ;
#442 = DIRECTION ( 'NONE',  ( -0.000000000000000000, 0.000000000000000000, 1.000000000000000000 ) ) ;
#443 = LINE ( 'NONE', #823, #983 ) ;
#444 = LINE ( 'NONE', #228, #191 ) ;
#445 = DIRECTION ( 'NONE',  ( -1.000000000000000000, 0.000000000000000000, 0.000000000000000000 ) ) ;
#446 = FACE_BOUND ( 'NONE', #382, .T. ) ;
#447 = ADVANCED_FACE ( 'NONE', ( #1193 ), #1217, .F. ) ;
#448 = CARTESIAN_POINT ( 'NONE',  ( 53.97699900737234913, -3.175006350012608003, 5.000000000000000000 ) ) ;
#449 = VECTOR ( 'NONE', #725, 1000.000000000000000 ) ;
#450 = AXIS2_PLACEMENT_3D ( 'NONE', #871, #103, #952 ) ;
#451 = AXIS2_PLACEMENT_3D ( 'NONE', #846, #280, #567 ) ;
#452 = FACE_OUTER_BOUND ( 'NONE', #317, .T. ) ;
#453 = CARTESIAN_POINT ( 'NONE',  ( 40.68974611752582149, -2.258734650291459762E-13, 0.000000000000000000 ) ) ;
#454 = EDGE_CURVE ( 'NONE', #466, #1060, #731, .T. ) ;
#455 = CARTESIAN_POINT ( 'NONE',  ( 3.175006350012610223, -82.42316484632964091, 5.000000000000000000 ) ) ;
#456 = ORIENTED_EDGE ( 'NONE', *, *, #1065, .F. ) ;
#457 = FACE_OUTER_BOUND ( 'NONE', #363, .T. ) ;
#458 = EDGE_LOOP ( 'NONE', ( #1235, #1165 ) ) ;
#459 = CARTESIAN_POINT ( 'NONE',  ( 40.68974611752536674, -82.42316484632965512, 5.000000000000000000 ) ) ;
#460 = ORIENTED_EDGE ( 'NONE', *, *, #925, .T. ) ;
#461 = ADVANCED_FACE ( 'NONE', ( #52 ), #1121, .F. ) ;
#462 = DIRECTION ( 'NONE',  ( 1.000000000000000000, 0.000000000000000000, 0.000000000000000000 ) ) ;
#463 = LINE ( 'NONE', #271, #467 ) ;
#464 = ORIENTED_EDGE ( 'NONE', *, *, #223, .F. ) ;
#465 = CARTESIAN_POINT ( 'NONE',  ( 1.675006350012612444, -82.42316484632964091, 5.000000000000000000 ) ) ;
#466 = VERTEX_POINT ( 'NONE', #265 ) ;
#467 = VECTOR ( 'NONE', #1147, 1000.000000000000000 ) ;
#468 = DIRECTION ( 'NONE',  ( 1.000000000000000000, 4.368346228775808535E-15, 0.000000000000000000 ) ) ;
#469 = EDGE_CURVE ( 'NONE', #861, #889, #438, .T. ) ;
#470 = CIRCLE ( 'NONE', #1166, 3.175010293012446638 ) ;
#471 = AXIS2_PLACEMENT_3D ( 'NONE', #790, #323, #23 ) ;
#472 = FACE_OUTER_BOUND ( 'NONE', #348, .T. ) ;
#473 = VERTEX_POINT ( 'NONE', #639 ) ;
#474 = FACE_OUTER_BOUND ( 'NONE', #128, .T. ) ;
#475 = EDGE_LOOP ( 'NONE', ( #40, #575, #586, #376 ) ) ;
#476 = CARTESIAN_POINT ( 'NONE',  ( 0.000000000000000000, 0.000000000000000000, 5.000000000000000000 ) ) ;
#477 = DIRECTION ( 'NONE',  ( -1.000000000000000000, 0.000000000000000000, 0.000000000000000000 ) ) ;
#478 = CARTESIAN_POINT ( 'NONE',  ( 50.80010160020330545, -3.175006350012608447, 5.000000000000000000 ) ) ;
#479 = ORIENTED_EDGE ( 'NONE', *, *, #770, .T. ) ;
#480 = CARTESIAN_POINT ( 'NONE',  ( 50.80010160020332677, -7.448422440110376632E-15, 5.000000000000000000 ) ) ;
#481 = ADVANCED_FACE ( 'NONE', ( #1199, #258, #921, #65, #446, #325 ), #113, .F. ) ;
#482 = DIRECTION ( 'NONE',  ( -0.000000000000000000, 0.000000000000000000, 1.000000000000000000 ) ) ;
#483 = ORIENTED_EDGE ( 'NONE', *, *, #1181, .T. ) ;
#484 = DIRECTION ( 'NONE',  ( 0.000000000000000000, -0.000000000000000000, 1.000000000000000000 ) ) ;
#485 = CIRCLE ( 'NONE', #981, 1.499999999999999556 ) ;
#486 = CIRCLE ( 'NONE', #69, 3.175010293012453744 ) ;
#487 = CIRCLE ( 'NONE', #1150, 3.175010293012446638 ) ;
#488 = DIRECTION ( 'NONE',  ( 1.000000000000000000, 0.000000000000000000, 0.000000000000000000 ) ) ;
#489 = ADVANCED_FACE ( 'NONE', ( #285 ), #393, .T. ) ;
#490 = ORIENTED_EDGE ( 'NONE', *, *, #650, .F. ) ;
#491 = DIRECTION ( 'NONE',  ( 0.000000000000000000, 1.000000000000000000, -0.000000000000000000 ) ) ;
#492 = CARTESIAN_POINT ( 'NONE',  ( 49.30010160020333387, -82.42316484632964091, 5.000000000000000000 ) ) ;
#493 = ORIENTED_EDGE ( 'NONE', *, *, #58, .T. ) ;
#494 = DIRECTION ( 'NONE',  ( 0.000000000000000000, 1.000000000000000000, 0.000000000000000000 ) ) ;
#495 = EDGE_CURVE ( 'NONE', #24, #56, #486, .T. ) ;
#496 = DIRECTION ( 'NONE',  ( -1.000000000000000000, 0.000000000000000000, 0.000000000000000000 ) ) ;
#497 = CARTESIAN_POINT ( 'NONE',  ( 50.80010160020330545, -3.175006350012608447, 5.000000000000000000 ) ) ;
#498 = VERTEX_POINT ( 'NONE', #576 ) ;
#499 = ORIENTED_EDGE ( 'NONE', *, *, #102, .F. ) ;
#500 = ORIENTED_EDGE ( 'NONE', *, *, #894, .T. ) ;
#501 = EDGE_CURVE ( 'NONE', #83, #662, #4, .T. ) ;
#502 = DIRECTION ( 'NONE',  ( 1.000000000000000000, 4.368346228775808535E-15, 0.000000000000000000 ) ) ;
#503 = AXIS2_PLACEMENT_3D ( 'NONE', #169, #923, #445 ) ;
#504 = VECTOR ( 'NONE', #960, 1000.000000000000000 ) ;
#505 = LINE ( 'NONE', #419, #868 ) ;
#506 = AXIS2_PLACEMENT_3D ( 'NONE', #148, #536, #142 ) ;
#507 = ORIENTED_EDGE ( 'NONE', *, *, #562, .F. ) ;
#508 = CARTESIAN_POINT ( 'NONE',  ( 50.80010160020330545, -3.175006350012608447, 5.000000000000000000 ) ) ;
#509 = LINE ( 'NONE', #881, #591 ) ;
#510 = ORIENTED_EDGE ( 'NONE', *, *, #915, .T. ) ;
#511 = DIRECTION ( 'NONE',  ( -0.000000000000000000, -0.000000000000000000, -1.000000000000000000 ) ) ;
#512 = ADVANCED_FACE ( 'NONE', ( #474 ), #203, .F. ) ;
#513 = DIRECTION ( 'NONE',  ( 1.000000000000000000, 0.000000000000000000, 0.000000000000000000 ) ) ;
#514 = ORIENTED_EDGE ( 'NONE', *, *, #584, .F. ) ;
#515 = DIRECTION ( 'NONE',  ( 0.000000000000000000, -0.000000000000000000, -1.000000000000000000 ) ) ;
#516 = CALENDAR_DATE ( 2024, 10, 11 ) ;
#517 = ORIENTED_EDGE ( 'NONE', *, *, #940, .F. ) ;
#518 = EDGE_LOOP ( 'NONE', ( #310, #1130, #798, #17 ) ) ;
#519 = FACE_OUTER_BOUND ( 'NONE', #841, .T. ) ;
#520 = EDGE_CURVE ( 'NONE', #29, #861, #1026, .T. ) ;
#521 = ORIENTED_EDGE ( 'NONE', *, *, #710, .F. ) ;
#522 = CARTESIAN_POINT ( 'NONE',  ( 3.175006350012608447, -3.175006350012608447, 5.000000000000000000 ) ) ;
#523 = PERSON_AND_ORGANIZATION ( #645, #851 ) ;
#524 = EDGE_LOOP ( 'NONE', ( #1094, #510, #836, #420 ) ) ;
#525 = PERSON_AND_ORGANIZATION ( #645, #851 ) ;
#526 = CARTESIAN_POINT ( 'NONE',  ( -0.000000000000000000, -79.92316484632965512, 0.000000000000000000 ) ) ;
#527 = DIRECTION ( 'NONE',  ( -1.000000000000000000, 0.000000000000000000, 0.000000000000000000 ) ) ;
#528 = VECTOR ( 'NONE', #239, 1000.000000000000000 ) ;
#529 = VECTOR ( 'NONE', #61, 1000.000000000000000 ) ;
#530 = CARTESIAN_POINT ( 'NONE',  ( 3.175006350012610223, -82.42316484632964091, 5.000000000000000000 ) ) ;
#531 = VECTOR ( 'NONE', #1075, 1000.000000000000000 ) ;
#532 = COORDINATED_UNIVERSAL_TIME_OFFSET ( 8, 0, .AHEAD. ) ;
#533 = ORIENTED_EDGE ( 'NONE', *, *, #132, .F. ) ;
#534 = CARTESIAN_POINT ( 'NONE',  ( 53.97699900737234913, -76.92316484632964091, 5.000000000000000000 ) ) ;
#535 = CARTESIAN_POINT ( 'NONE',  ( 53.97699900737234913, -3.175006350012608003, 0.000000000000000000 ) ) ;
#536 = DIRECTION ( 'NONE',  ( 0.000000000000000000, 1.000000000000000000, 0.000000000000000000 ) ) ;
#537 = ORIENTED_EDGE ( 'NONE', *, *, #815, .F. ) ;
#538 = EDGE_CURVE ( 'NONE', #914, #714, #1244, .T. ) ;
#539 = CARTESIAN_POINT ( 'NONE',  ( 50.80010160020332677, -6.350016643025054641, 5.000000000000000000 ) ) ;
#540 = DIRECTION ( 'NONE',  ( -1.000000000000000000, 0.000000000000000000, 0.000000000000000000 ) ) ;
#541 = LINE ( 'NONE', #1218, #129 ) ;
#542 = APPROVAL_STATUS ( 'not_yet_approved' ) ;
#543 = DIRECTION ( 'NONE',  ( -0.000000000000000000, 0.000000000000000000, 1.000000000000000000 ) ) ;
#544 = ADVANCED_FACE ( 'NONE', ( #775 ), #769, .F. ) ;
#545 = PLANE ( 'NONE',  #773 ) ;
#546 = CARTESIAN_POINT ( 'NONE',  ( 50.80010160020330545, -3.175006350012608447, 5.000000000000000000 ) ) ;
#547 = CIRCLE ( 'NONE', #1164, 1.500000000000022204 ) ;
#548 = VECTOR ( 'NONE', #965, 1000.000000000000000 ) ;
#549 = ORIENTED_EDGE ( 'NONE', *, *, #538, .F. ) ;
#550 = CIRCLE ( 'NONE', #172, 1.499999999999994449 ) ;
#551 = CARTESIAN_POINT ( 'NONE',  ( 50.80010160020333387, -82.42316484632964091, 5.000000000000000000 ) ) ;
#552 = LOCAL_TIME ( 15, 41, 44.00000000000000000, #1215 ) ;
#553 = DIRECTION ( 'NONE',  ( -1.000000000000000000, 0.000000000000000000, 0.000000000000000000 ) ) ;
#554 = CC_DESIGN_PERSON_AND_ORGANIZATION_ASSIGNMENT ( #523, #237, ( #335 ) ) ;
#555 = EDGE_CURVE ( 'NONE', #83, #158, #208, .T. ) ;
#556 = CARTESIAN_POINT ( 'NONE',  ( 3.175006350012608003, -6.350016643025054641, 5.000000000000000000 ) ) ;
#557 = ORIENTED_EDGE ( 'NONE', *, *, #3, .T. ) ;
#558 = CARTESIAN_POINT ( 'NONE',  ( 3.175006350012608003, 3.942999837700000231E-06, 0.000000000000000000 ) ) ;
#559 = DIRECTION ( 'NONE',  ( -0.000000000000000000, 0.000000000000000000, 1.000000000000000000 ) ) ;
#560 = VERTEX_POINT ( 'NONE', #592 ) ;
#561 = CARTESIAN_POINT ( 'NONE',  ( -6.146844504818658830E-14, -82.53105974467828787, 5.000000000000000000 ) ) ;
#562 = EDGE_CURVE ( 'NONE', #662, #56, #386, .T. ) ;
#563 = ORIENTED_EDGE ( 'NONE', *, *, #727, .T. ) ;
#564 = LINE ( 'NONE', #377, #713 ) ;
#565 = DIRECTION ( 'NONE',  ( 0.000000000000000000, 0.000000000000000000, 1.000000000000000000 ) ) ;
#566 = EDGE_LOOP ( 'NONE', ( #137, #966 ) ) ;
#567 = DIRECTION ( 'NONE',  ( 1.000000000000000000, 0.000000000000000000, 0.000000000000000000 ) ) ;
#568 = APPROVAL ( #542, '未指定' ) ;
#569 = ORIENTED_EDGE ( 'NONE', *, *, #718, .F. ) ;
#570 = VECTOR ( 'NONE', #1043, 1000.000000000000000 ) ;
#571 = DIRECTION ( 'NONE',  ( 1.000000000000000000, 0.000000000000000000, 0.000000000000000000 ) ) ;
#572 = CIRCLE ( 'NONE', #652, 1.499999999999997780 ) ;
#573 = VECTOR ( 'NONE', #215, 1000.000000000000000 ) ;
#574 = LINE ( 'NONE', #184, #1 ) ;
#575 = ORIENTED_EDGE ( 'NONE', *, *, #1033, .F. ) ;
#576 = CARTESIAN_POINT ( 'NONE',  ( 50.81935007980136731, -85.60000394073000507, 0.000000000000000000 ) ) ;
#577 = ORIENTED_EDGE ( 'NONE', *, *, #619, .F. ) ;
#578 = CARTESIAN_POINT ( 'NONE',  ( 50.80010160020333387, -82.42316484632964091, 0.000000000000000000 ) ) ;
#579 = EDGE_CURVE ( 'NONE', #694, #919, #381, .T. ) ;
#580 = DIRECTION ( 'NONE',  ( -5.551115123125777969E-15, -1.000000000000000000, 0.000000000000000000 ) ) ;
#581 = ORIENTED_EDGE ( 'NONE', *, *, #684, .F. ) ;
#582 = DIRECTION ( 'NONE',  ( -0.000000000000000000, 0.000000000000000000, 1.000000000000000000 ) ) ;
#583 = PRODUCT_DEFINITION_SHAPE ( 'NONE', 'NONE',  #201 ) ;
#584 = EDGE_CURVE ( 'NONE', #213, #1182, #780, .T. ) ;
#585 = CARTESIAN_POINT ( 'NONE',  ( 6.351845444412957065, -82.42316484632965512, 0.000000000000000000 ) ) ;
#586 = ORIENTED_EDGE ( 'NONE', *, *, #1118, .F. ) ;
#587 = CARTESIAN_POINT ( 'NONE',  ( -6.146844504818658830E-14, -82.53105974467828787, 5.000000000000000000 ) ) ;
#588 = AXIS2_PLACEMENT_3D ( 'NONE', #597, #671, #1240 ) ;
#589 = VECTOR ( 'NONE', #338, 1000.000000000000000 ) ;
#590 = CC_DESIGN_PERSON_AND_ORGANIZATION_ASSIGNMENT ( #422, #1188, ( #201 ) ) ;
#591 = VECTOR ( 'NONE', #962, 1000.000000000000000 ) ;
#592 = CARTESIAN_POINT ( 'NONE',  ( 26.98104366549159749, -53.67500635001261600, 5.000000000000000000 ) ) ;
#593 = EDGE_CURVE ( 'NONE', #192, #36, #296, .T. ) ;
#594 = ORIENTED_EDGE ( 'NONE', *, *, #887, .F. ) ;
#595 = CARTESIAN_POINT ( 'NONE',  ( 3.175006350012608447, -3.175006350012608447, 5.000000000000000000 ) ) ;
#596 = LINE ( 'NONE', #968, #1059 ) ;
#597 = CARTESIAN_POINT ( 'NONE',  ( 0.000000000000000000, 0.000000000000000000, 0.000000000000000000 ) ) ;
#598 = ORIENTED_EDGE ( 'NONE', *, *, #64, .F. ) ;
#599 = ORIENTED_EDGE ( 'NONE', *, *, #501, .F. ) ;
#600 = EDGE_CURVE ( 'NONE', #1035, #1191, #969, .T. ) ;
#601 = LINE ( 'NONE', #221, #371 ) ;
#602 = ORIENTED_EDGE ( 'NONE', *, *, #454, .T. ) ;
#603 = CARTESIAN_POINT ( 'NONE',  ( 49.30010160020328414, -3.175006350012608447, 5.000000000000000000 ) ) ;
#604 = DIRECTION ( 'NONE',  ( -0.000000000000000000, -0.000000000000000000, -1.000000000000000000 ) ) ;
#605 = ORIENTED_EDGE ( 'NONE', *, *, #619, .T. ) ;
#606 = CARTESIAN_POINT ( 'NONE',  ( 3.175006350012610223, -82.42316484632964091, 5.000000000000000000 ) ) ;
#607 = CARTESIAN_POINT ( 'NONE',  ( 4.675006350012608003, -82.42316484632964091, 0.000000000000000000 ) ) ;
#608 = VERTEX_POINT ( 'NONE', #585 ) ;
#609 = EDGE_CURVE ( 'NONE', #1044, #95, #1148, .T. ) ;
#610 = ORIENTED_EDGE ( 'NONE', *, *, #593, .F. ) ;
#611 = VECTOR ( 'NONE', #1110, 1000.000000000000000 ) ;
#612 = CARTESIAN_POINT ( 'NONE',  ( 50.80010160020330545, -3.175006350012608447, 5.000000000000000000 ) ) ;
#613 = VECTOR ( 'NONE', #66, 1000.000000000000000 ) ;
#614 = ORIENTED_EDGE ( 'NONE', *, *, #58, .F. ) ;
#615 = DIRECTION ( 'NONE',  ( 0.000000000000000000, 1.000000000000000000, 0.000000000000000000 ) ) ;
#616 = DIRECTION ( 'NONE',  ( 1.000000000000000000, 0.000000000000000000, 0.000000000000000000 ) ) ;
#617 = ORIENTED_EDGE ( 'NONE', *, *, #1085, .T. ) ;
#618 = CARTESIAN_POINT ( 'NONE',  ( 6.350016643025054641, -3.175006350012608003, 5.000000000000000000 ) ) ;
#619 = EDGE_CURVE ( 'NONE', #210, #991, #470, .T. ) ;
#620 = ORIENTED_EDGE ( 'NONE', *, *, #1152, .F. ) ;
#621 = FACE_OUTER_BOUND ( 'NONE', #119, .T. ) ;
#622 = APPLICATION_PROTOCOL_DEFINITION ( 'international standard', 'config_control_design', 1994, #93 ) ;
#623 = EDGE_LOOP ( 'NONE', ( #653, #939, #222, #284 ) ) ;
#624 = CARTESIAN_POINT ( 'NONE',  ( 26.98104366549159749, -79.92316484632965512, 5.000000000000000000 ) ) ;
#625 = CARTESIAN_POINT ( 'NONE',  ( 0.000000000000000000, -54.67500635001260889, 5.000000000000000000 ) ) ;
#626 = ORIENTED_EDGE ( 'NONE', *, *, #403, .F. ) ;
#627 = CARTESIAN_POINT ( 'NONE',  ( 4.675006350012608003, -82.42316484632964091, 5.000000000000000000 ) ) ;
#628 = DIRECTION ( 'NONE',  ( 1.000000000000000000, 0.000000000000000000, 0.000000000000000000 ) ) ;
#629 = ORIENTED_EDGE ( 'NONE', *, *, #336, .T. ) ;
#630 = EDGE_LOOP ( 'NONE', ( #760, #432, #242, #610 ) ) ;
#631 = CARTESIAN_POINT ( 'NONE',  ( 50.80010160020330545, -3.175006350012608447, 0.000000000000000000 ) ) ;
#632 = LINE ( 'NONE', #453, #49 ) ;
#633 = CYLINDRICAL_SURFACE ( 'NONE', #752, 1.500000000000022204 ) ;
#634 = AXIS2_PLACEMENT_3D ( 'NONE', #578, #668, #571 ) ;
#635 = EDGE_CURVE ( 'NONE', #694, #428, #108, .T. ) ;
#636 = ORIENTED_EDGE ( 'NONE', *, *, #150, .F. ) ;
#637 = ORIENTED_EDGE ( 'NONE', *, *, #1162, .F. ) ;
#638 = CARTESIAN_POINT ( 'NONE',  ( 53.97699900737234913, -82.42316484632965512, 0.000000000000000000 ) ) ;
#639 = CARTESIAN_POINT ( 'NONE',  ( 50.80010160020332677, -6.350016643025054641, 0.000000000000000000 ) ) ;
#640 = LINE ( 'NONE', #161, #1028 ) ;
#641 = EDGE_CURVE ( 'NONE', #791, #801, #1163, .T. ) ;
#642 = DIRECTION ( 'NONE',  ( 0.000000000000000000, -0.000000000000000000, 1.000000000000000000 ) ) ;
#643 = CARTESIAN_POINT ( 'NONE',  ( 0.000000000000000000, -3.175006350012608003, 5.000000000000000000 ) ) ;
#644 = DIRECTION ( 'NONE',  ( -0.000000000000000000, -0.000000000000000000, -1.000000000000000000 ) ) ;
#645 = PERSON ( '未指定', '未指定', '未指定', ('未指定'), ('未指定'), ('未指定') ) ;
#646 = CALENDAR_DATE ( 2024, 10, 11 ) ;
#647 = EDGE_CURVE ( 'NONE', #441, #213, #705, .T. ) ;
#648 = LINE ( 'NONE', #1115, #883 ) ;
#649 = DIRECTION ( 'NONE',  ( 1.000000000000000000, 0.000000000000000000, 0.000000000000000000 ) ) ;
#650 = EDGE_CURVE ( 'NONE', #1245, #80, #572, .T. ) ;
#651 = CARTESIAN_POINT ( 'NONE',  ( 3.175006350012608003, -79.24632575192929096, 5.000000000000000000 ) ) ;
#652 = AXIS2_PLACEMENT_3D ( 'NONE', #225, #34, #513 ) ;
#653 = ORIENTED_EDGE ( 'NONE', *, *, #641, .T. ) ;
#654 = FACE_BOUND ( 'NONE', #47, .T. ) ;
#655 = AXIS2_PLACEMENT_3D ( 'NONE', #1138, #1020, #357 ) ;
#656 = APPROVAL_PERSON_ORGANIZATION ( #525, #568, #825 ) ;
#657 = DIRECTION ( 'NONE',  ( -0.000000000000000000, -0.000000000000000000, -1.000000000000000000 ) ) ;
#658 = EDGE_CURVE ( 'NONE', #74, #695, #505, .T. ) ;
#659 = ORIENTED_EDGE ( 'NONE', *, *, #959, .T. ) ;
#660 = ORIENTED_EDGE ( 'NONE', *, *, #379, .F. ) ;
#661 = FACE_OUTER_BOUND ( 'NONE', #518, .T. ) ;
#662 = VERTEX_POINT ( 'NONE', #1071 ) ;
#663 = DIRECTION ( 'NONE',  ( 0.000000000000000000, -1.000000000000000000, 0.000000000000000000 ) ) ;
#664 = CARTESIAN_POINT ( 'NONE',  ( 3.175006350012610223, -82.42316484632964091, 5.000000000000000000 ) ) ;
#665 = ORIENTED_EDGE ( 'NONE', *, *, #779, .T. ) ;
#666 = DIRECTION ( 'NONE',  ( 1.000000000000000000, 0.000000000000000000, 0.000000000000000000 ) ) ;
#667 = ORIENTED_EDGE ( 'NONE', *, *, #1003, .T. ) ;
#668 = DIRECTION ( 'NONE',  ( -0.000000000000000000, 0.000000000000000000, 1.000000000000000000 ) ) ;
#669 = CARTESIAN_POINT ( 'NONE',  ( 3.175006350012608447, -3.175006350012608447, 5.000000000000000000 ) ) ;
#670 = ORIENTED_EDGE ( 'NONE', *, *, #206, .F. ) ;
#671 = DIRECTION ( 'NONE',  ( -0.000000000000000000, 0.000000000000000000, 1.000000000000000000 ) ) ;
#672 = ORIENTED_EDGE ( 'NONE', *, *, #782, .F. ) ;
#673 = ADVANCED_FACE ( 'NONE', ( #793 ), #413, .T. ) ;
#674 = AXIS2_PLACEMENT_3D ( 'NONE', #827, #1002, #726 ) ;
#675 = CARTESIAN_POINT ( 'NONE',  ( 28.80010160020332322, -76.92316484632966933, 5.000000000000000000 ) ) ;
#676 = VECTOR ( 'NONE', #13, 1000.000000000000000 ) ;
#677 = CIRCLE ( 'NONE', #655, 1.499999999999997780 ) ;
#678 = CARTESIAN_POINT ( 'NONE',  ( 3.175006350012608447, -3.175006350012608447, 0.000000000000000000 ) ) ;
#679 = EDGE_LOOP ( 'NONE', ( #1139, #637, #408, #479 ) ) ;
#680 = LINE ( 'NONE', #1124, #691 ) ;
#681 = ADVANCED_FACE ( 'NONE', ( #986 ), #699, .F. ) ;
#682 = DIRECTION ( 'NONE',  ( -0.000000000000000000, -0.000000000000000000, -1.000000000000000000 ) ) ;
#683 = EDGE_LOOP ( 'NONE', ( #1105, #598, #219, #238 ) ) ;
#684 = EDGE_CURVE ( 'NONE', #6, #245, #1185, .T. ) ;
#685 = DIRECTION ( 'NONE',  ( -0.000000000000000000, -0.000000000000000000, -1.000000000000000000 ) ) ;
#686 = ORIENTED_EDGE ( 'NONE', *, *, #434, .F. ) ;
#687 = CARTESIAN_POINT ( 'NONE',  ( 53.97699900737234913, 0.000000000000000000, 5.000000000000000000 ) ) ;
#688 = VECTOR ( 'NONE', #76, 1000.000000000000000 ) ;
#689 = VECTOR ( 'NONE', #415, 1000.000000000000000 ) ;
#690 = ORIENTED_EDGE ( 'NONE', *, *, #1158, .F. ) ;
#691 = VECTOR ( 'NONE', #1140, 1000.000000000000000 ) ;
#692 = ADVANCED_FACE ( 'NONE', ( #312 ), #326, .F. ) ;
#693 = DIRECTION ( 'NONE',  ( -1.000000000000000000, 0.000000000000000000, 0.000000000000000000 ) ) ;
#694 = VERTEX_POINT ( 'NONE', #405 ) ;
#695 = VERTEX_POINT ( 'NONE', #788 ) ;
#696 = DIRECTION ( 'NONE',  ( 1.000000000000000000, 0.000000000000000000, 0.000000000000000000 ) ) ;
#697 = ORIENTED_EDGE ( 'NONE', *, *, #1178, .F. ) ;
#698 = CARTESIAN_POINT ( 'NONE',  ( 53.97511189321576097, -3.175006350012608003, 5.000000000000000000 ) ) ;
#699 = CYLINDRICAL_SURFACE ( 'NONE', #290, 1.499999999999999556 ) ;
#700 = ORIENTED_EDGE ( 'NONE', *, *, #906, .F. ) ;
#701 = DIRECTION ( 'NONE',  ( -0.000000000000000000, 0.000000000000000000, 1.000000000000000000 ) ) ;
#702 = PLANE ( 'NONE',  #1011 ) ;
#703 = EDGE_LOOP ( 'NONE', ( #620, #744 ) ) ;
#704 = LINE ( 'NONE', #418, #828 ) ;
#705 = LINE ( 'NONE', #319, #829 ) ;
#706 = ORIENTED_EDGE ( 'NONE', *, *, #555, .F. ) ;
#707 = CARTESIAN_POINT ( 'NONE',  ( 6.351845444412957065, -82.42316484632965512, 5.000000000000000000 ) ) ;
#708 =( LENGTH_UNIT ( ) NAMED_UNIT ( * ) SI_UNIT ( .MILLI., .METRE. ) );
#709 = ORIENTED_EDGE ( 'NONE', *, *, #1048, .F. ) ;
#710 = EDGE_CURVE ( 'NONE', #748, #473, #809, .T. ) ;
#711 = DIRECTION ( 'NONE',  ( 1.000000000000000000, 0.000000000000000000, 0.000000000000000000 ) ) ;
#712 = VECTOR ( 'NONE', #1169, 1000.000000000000000 ) ;
#713 = VECTOR ( 'NONE', #745, 1000.000000000000000 ) ;
#714 = VERTEX_POINT ( 'NONE', #1171 ) ;
#715 = DIRECTION ( 'NONE',  ( -1.000000000000000000, 0.000000000000000000, 0.000000000000000000 ) ) ;
#716 = DIRECTION ( 'NONE',  ( 0.000000000000000000, 0.000000000000000000, 1.000000000000000000 ) ) ;
#717 = ORIENTED_EDGE ( 'NONE', *, *, #609, .T. ) ;
#718 = EDGE_CURVE ( 'NONE', #951, #970, #963, .T. ) ;
#719 = ORIENTED_EDGE ( 'NONE', *, *, #609, .F. ) ;
#720 = DIRECTION ( 'NONE',  ( 1.000000000000000000, 0.000000000000000000, -0.000000000000000000 ) ) ;
#721 = ORIENTED_EDGE ( 'NONE', *, *, #822, .T. ) ;
#722 = CARTESIAN_POINT ( 'NONE',  ( -2.368445048186592350E-15, -3.180010160020173338, 5.000000000000000000 ) ) ;
#723 = ORIENTED_EDGE ( 'NONE', *, *, #727, .F. ) ;
#724 = ORIENTED_EDGE ( 'NONE', *, *, #555, .T. ) ;
#725 = DIRECTION ( 'NONE',  ( -0.000000000000000000, -0.000000000000000000, -1.000000000000000000 ) ) ;
#726 = DIRECTION ( 'NONE',  ( -1.000000000000000000, 0.000000000000000000, 0.000000000000000000 ) ) ;
#727 = EDGE_CURVE ( 'NONE', #608, #1044, #1230, .T. ) ;
#728 = CARTESIAN_POINT ( 'NONE',  ( 50.80010160020331966, -53.67500635001261600, 0.000000000000000000 ) ) ;
#729 = ORIENTED_EDGE ( 'NONE', *, *, #520, .F. ) ;
#730 = DIRECTION ( 'NONE',  ( 1.000000000000000000, 0.000000000000000000, 0.000000000000000000 ) ) ;
#731 = LINE ( 'NONE', #360, #611 ) ;
#732 = VECTOR ( 'NONE', #240, 1000.000000000000000 ) ;
#733 = EDGE_CURVE ( 'NONE', #441, #185, #444, .T. ) ;
#734 = AXIS2_PLACEMENT_3D ( 'NONE', #1015, #1211, #817 ) ;
#735 = LINE ( 'NONE', #1027, #928 ) ;
#736 = VECTOR ( 'NONE', #761, 1000.000000000000000 ) ;
#737 = CARTESIAN_POINT ( 'NONE',  ( -3.942999837660415841E-06, -3.175006350012608447, 0.000000000000000000 ) ) ;
#738 = DIRECTION ( 'NONE',  ( -0.000000000000000000, 0.000000000000000000, 1.000000000000000000 ) ) ;
#739 = DIRECTION ( 'NONE',  ( -0.000000000000000000, 0.000000000000000000, 1.000000000000000000 ) ) ;
#740 = ADVANCED_FACE ( 'NONE', ( #45 ), #322, .T. ) ;
#741 = DIRECTION ( 'NONE',  ( -0.000000000000000000, 0.000000000000000000, 1.000000000000000000 ) ) ;
#742 = CARTESIAN_POINT ( 'NONE',  ( 26.98104366549159749, 0.000000000000000000, 5.000000000000000000 ) ) ;
#743 = CARTESIAN_POINT ( 'NONE',  ( 52.30010160020332677, -82.42316484632964091, 5.000000000000000000 ) ) ;
#744 = ORIENTED_EDGE ( 'NONE', *, *, #915, .F. ) ;
#745 = DIRECTION ( 'NONE',  ( -0.000000000000000000, -0.000000000000000000, -1.000000000000000000 ) ) ;
#746 = ADVANCED_FACE ( 'NONE', ( #346 ), #1104, .F. ) ;
#747 = CARTESIAN_POINT ( 'NONE',  ( 6.350016643025054641, -3.175006350012608003, 5.000000000000000000 ) ) ;
#748 = VERTEX_POINT ( 'NONE', #340 ) ;
#749 = AXIS2_PLACEMENT_3D ( 'NONE', #1209, #163, #826 ) ;
#750 = LINE ( 'NONE', #824, #154 ) ;
#751 = VECTOR ( 'NONE', #895, 1000.000000000000000 ) ;
#752 = AXIS2_PLACEMENT_3D ( 'NONE', #508, #243, #890 ) ;
#753 = ORIENTED_EDGE ( 'NONE', *, *, #859, .T. ) ;
#754 = DIRECTION ( 'NONE',  ( -1.000000000000000000, 1.466221957335724087E-16, 0.000000000000000000 ) ) ;
#755 = CIRCLE ( 'NONE', #209, 1.499999999999999556 ) ;
#756 = CC_DESIGN_SECURITY_CLASSIFICATION ( #53, ( #335 ) ) ;
#757 = CARTESIAN_POINT ( 'NONE',  ( 3.175006350012608003, -85.60000394073000507, 0.000000000000000000 ) ) ;
#758 = EDGE_LOOP ( 'NONE', ( #549, #199, #777, #456 ) ) ;
#759 = DIRECTION ( 'NONE',  ( -0.000000000000000000, -0.000000000000000000, -1.000000000000000000 ) ) ;
#760 = ORIENTED_EDGE ( 'NONE', *, *, #993, .T. ) ;
#761 = DIRECTION ( 'NONE',  ( -0.000000000000000000, -0.000000000000000000, -1.000000000000000000 ) ) ;
#762 = CARTESIAN_POINT ( 'NONE',  ( 3.175006350012608003, -85.60000394073000507, 5.000000000000000000 ) ) ;
#763 = ORIENTED_EDGE ( 'NONE', *, *, #1033, .T. ) ;
#764 = EDGE_CURVE ( 'NONE', #951, #608, #1180, .T. ) ;
#765 = CARTESIAN_POINT ( 'NONE',  ( 40.68974611752582149, -2.258734650291459762E-13, 5.000000000000000000 ) ) ;
#766 = ORIENTED_EDGE ( 'NONE', *, *, #79, .T. ) ;
#767 = DIRECTION ( 'NONE',  ( -0.000000000000000000, 0.000000000000000000, 1.000000000000000000 ) ) ;
#768 = DIRECTION ( 'NONE',  ( -0.000000000000000000, -0.000000000000000000, -1.000000000000000000 ) ) ;
#769 = CYLINDRICAL_SURFACE ( 'NONE', #391, 1.499999999999994449 ) ;
#770 = EDGE_CURVE ( 'NONE', #861, #991, #1200, .T. ) ;
#771 = ORIENTED_EDGE ( 'NONE', *, *, #1055, .F. ) ;
#772 = LINE ( 'NONE', #1153, #1192 ) ;
#773 = AXIS2_PLACEMENT_3D ( 'NONE', #70, #910, #60 ) ;
#774 = AXIS2_PLACEMENT_3D ( 'NONE', #922, #834, #73 ) ;
#775 = FACE_OUTER_BOUND ( 'NONE', #630, .T. ) ;
#776 = APPROVAL ( #149, '未指定' ) ;
#777 = ORIENTED_EDGE ( 'NONE', *, *, #593, .T. ) ;
#778 =( NAMED_UNIT ( * ) SI_UNIT ( $, .STERADIAN. ) SOLID_ANGLE_UNIT ( ) );
#779 = EDGE_CURVE ( 'NONE', #1069, #882, #153, .T. ) ;
#780 = LINE ( 'NONE', #1159, #1084 ) ;
#781 = ORIENTED_EDGE ( 'NONE', *, *, #495, .F. ) ;
#782 = EDGE_CURVE ( 'NONE', #1032, #695, #884, .T. ) ;
#783 = DIRECTION ( 'NONE',  ( 1.000000000000000000, 0.000000000000000000, 0.000000000000000000 ) ) ;
#784 = ORIENTED_EDGE ( 'NONE', *, *, #454, .F. ) ;
#785 = DIRECTION ( 'NONE',  ( -0.000000000000000000, -0.000000000000000000, -1.000000000000000000 ) ) ;
#786 = DIRECTION ( 'NONE',  ( 0.000000000000000000, 1.000000000000000000, -0.000000000000000000 ) ) ;
#787 = AXIS2_PLACEMENT_3D ( 'NONE', #480, #754, #842 ) ;
#788 = CARTESIAN_POINT ( 'NONE',  ( 4.675006350012608003, -3.175006350012608447, 0.000000000000000000 ) ) ;
#789 = VERTEX_POINT ( 'NONE', #125 ) ;
#790 = CARTESIAN_POINT ( 'NONE',  ( 50.80010160020333387, -82.42316484632964091, 5.000000000000000000 ) ) ;
#791 = VERTEX_POINT ( 'NONE', #728 ) ;
#792 = CARTESIAN_POINT ( 'NONE',  ( 3.175006350012608447, -3.175006350012608447, 5.000000000000000000 ) ) ;
#793 = FACE_OUTER_BOUND ( 'NONE', #231, .T. ) ;
#794 = ADVANCED_FACE ( 'NONE', ( #897 ), #812, .T. ) ;
#795 = ORIENTED_EDGE ( 'NONE', *, *, #733, .F. ) ;
#796 = DIRECTION ( 'NONE',  ( 0.000000000000000000, -1.000000000000000000, 0.000000000000000000 ) ) ;
#797 = LINE ( 'NONE', #112, #573 ) ;
#798 = ORIENTED_EDGE ( 'NONE', *, *, #373, .F. ) ;
#799 = ORIENTED_EDGE ( 'NONE', *, *, #279, .T. ) ;
#800 = DIRECTION ( 'NONE',  ( -1.000000000000000000, 0.000000000000000000, 0.000000000000000000 ) ) ;
#801 = VERTEX_POINT ( 'NONE', #250 ) ;
#802 = ADVANCED_FACE ( 'NONE', ( #37 ), #633, .F. ) ;
#803 = LINE ( 'NONE', #1195, #1049 ) ;
#804 = PERSON_AND_ORGANIZATION ( #645, #851 ) ;
#805 = ORIENTED_EDGE ( 'NONE', *, *, #940, .T. ) ;
#806 = DIRECTION ( 'NONE',  ( -0.000000000000000000, 0.000000000000000000, 1.000000000000000000 ) ) ;
#807 = CIRCLE ( 'NONE', #123, 3.175010293012445750 ) ;
#808 = DIRECTION ( 'NONE',  ( -0.000000000000000000, 0.000000000000000000, -1.000000000000000000 ) ) ;
#809 = CIRCLE ( 'NONE', #207, 3.175010293012446638 ) ;
#810 = VECTOR ( 'NONE', #282, 1000.000000000000000 ) ;
#811 = ORIENTED_EDGE ( 'NONE', *, *, #1190, .T. ) ;
#812 = PLANE ( 'NONE',  #869 ) ;
#813 = PERSON_AND_ORGANIZATION_ROLE ( 'design_supplier' ) ;
#814 = ORIENTED_EDGE ( 'NONE', *, *, #1065, .T. ) ;
#815 = EDGE_CURVE ( 'NONE', #308, #1191, #803, .T. ) ;
#816 = LINE ( 'NONE', #624, #712 ) ;
#817 = DIRECTION ( 'NONE',  ( 1.000000000000000000, 0.000000000000000000, 0.000000000000000000 ) ) ;
#818 = LINE ( 'NONE', #830, #613 ) ;
#819 = APPROVAL_DATE_TIME ( #55, #776 ) ;
#820 = ORIENTED_EDGE ( 'NONE', *, *, #344, .F. ) ;
#821 = CARTESIAN_POINT ( 'NONE',  ( 53.97699900737234913, -3.175006350012608003, 5.000000000000000000 ) ) ;
#822 = EDGE_CURVE ( 'NONE', #100, #560, #1187, .T. ) ;
#823 = CARTESIAN_POINT ( 'NONE',  ( 53.97699900737234913, -54.67500635001260889, 5.000000000000000000 ) ) ;
#824 = CARTESIAN_POINT ( 'NONE',  ( 50.81935007980136731, -85.60000394073000507, 5.000000000000000000 ) ) ;
#825 = APPROVAL_ROLE ( '' ) ;
#826 = DIRECTION ( 'NONE',  ( 1.000000000000000000, 0.000000000000000000, 0.000000000000000000 ) ) ;
#827 = CARTESIAN_POINT ( 'NONE',  ( 50.80010160020333387, -82.42316484632964091, 5.000000000000000000 ) ) ;
#828 = VECTOR ( 'NONE', #502, 1000.000000000000000 ) ;
#829 = VECTOR ( 'NONE', #122, 1000.000000000000000 ) ;
#830 = CARTESIAN_POINT ( 'NONE',  ( 0.000000000000000000, -3.175006350012608003, 0.000000000000000000 ) ) ;
#831 = VECTOR ( 'NONE', #644, 1000.000000000000000 ) ;
#832 = CYLINDRICAL_SURFACE ( 'NONE', #845, 3.176897407169025467 ) ;
#833 = DIRECTION ( 'NONE',  ( -0.000000000000000000, -0.000000000000000000, -1.000000000000000000 ) ) ;
#834 = DIRECTION ( 'NONE',  ( 0.000000000000000000, 1.000000000000000000, 0.000000000000000000 ) ) ;
#835 = EDGE_CURVE ( 'NONE', #216, #1245, #1012, .T. ) ;
#836 = ORIENTED_EDGE ( 'NONE', *, *, #684, .T. ) ;
#837 = FACE_BOUND ( 'NONE', #114, .T. ) ;
#838 = CARTESIAN_POINT ( 'NONE',  ( 3.175006350012608447, -3.175006350012608447, 5.000000000000000000 ) ) ;
#839 = ORIENTED_EDGE ( 'NONE', *, *, #1190, .F. ) ;
#840 = LINE ( 'NONE', #1113, #946 ) ;
#841 = EDGE_LOOP ( 'NONE', ( #1053, #1005, #1038, #987 ) ) ;
#842 = DIRECTION ( 'NONE',  ( -1.466221957335724087E-16, -1.000000000000000000, 0.000000000000000000 ) ) ;
#843 = CARTESIAN_POINT ( 'NONE',  ( -0.000000000000000000, 0.000000000000000000, 0.000000000000000000 ) ) ;
#844 = ORIENTED_EDGE ( 'NONE', *, *, #955, .T. ) ;
#845 = AXIS2_PLACEMENT_3D ( 'NONE', #247, #657, #477 ) ;
#846 = CARTESIAN_POINT ( 'NONE',  ( 3.175006350012608447, -3.175006350012608447, 0.000000000000000000 ) ) ;
#847 = AXIS2_PLACEMENT_3D ( 'NONE', #1004, #701, #1098 ) ;
#848 = AXIS2_PLACEMENT_3D ( 'NONE', #455, #1122, #938 ) ;
#849 = ORIENTED_EDGE ( 'NONE', *, *, #412, .F. ) ;
#850 = DIRECTION ( 'NONE',  ( -0.000000000000000000, 0.000000000000000000, 1.000000000000000000 ) ) ;
#851 = ORGANIZATION ( '未指定', '未指定', '' ) ;
#852 = CARTESIAN_POINT ( 'NONE',  ( 53.97699900737234913, 0.000000000000000000, 5.000000000000000000 ) ) ;
#853 = ADVANCED_FACE ( 'NONE', ( #621 ), #996, .T. ) ;
#854 = EDGE_LOOP ( 'NONE', ( #1092, #62, #943, #629 ) ) ;
#855 = CARTESIAN_POINT ( 'NONE',  ( 3.175006350012608447, -3.175006350012608447, 5.000000000000000000 ) ) ;
#856 = ORIENTED_EDGE ( 'NONE', *, *, #1158, .T. ) ;
#857 = PLANE ( 'NONE',  #787 ) ;
#858 = DIRECTION ( 'NONE',  ( -1.000000000000000000, 0.000000000000000000, 0.000000000000000000 ) ) ;
#859 = EDGE_CURVE ( 'NONE', #74, #287, #755, .T. ) ;
#860 = DIRECTION ( 'NONE',  ( 1.000000000000000000, 0.000000000000000000, 0.000000000000000000 ) ) ;
#861 = VERTEX_POINT ( 'NONE', #918 ) ;
#862 = CARTESIAN_POINT ( 'NONE',  ( 50.80010160020330545, -3.175006350012608447, 5.000000000000000000 ) ) ;
#863 = EDGE_CURVE ( 'NONE', #1063, #748, #818, .T. ) ;
#864 = DIRECTION ( 'NONE',  ( -0.000000000000000000, 0.000000000000000000, 1.000000000000000000 ) ) ;
#865 = EDGE_CURVE ( 'NONE', #158, #395, #181, .T. ) ;
#866 = ORIENTED_EDGE ( 'NONE', *, *, #658, .F. ) ;
#867 = PLANE ( 'NONE',  #406 ) ;
#868 = VECTOR ( 'NONE', #28, 1000.000000000000000 ) ;
#869 = AXIS2_PLACEMENT_3D ( 'NONE', #978, #615, #220 ) ;
#870 = LOCAL_TIME ( 15, 41, 44.00000000000000000, #532 ) ;
#871 = CARTESIAN_POINT ( 'NONE',  ( 3.360270170619649697E-13, -76.92316484632988249, 5.000000000000000000 ) ) ;
#872 = ORIENTED_EDGE ( 'NONE', *, *, #1023, .T. ) ;
#873 = ADVANCED_FACE ( 'NONE', ( #661 ), #1224, .F. ) ;
#874 = CARTESIAN_POINT ( 'NONE',  ( 0.000000000000000000, -79.92316484632965512, 5.000000000000000000 ) ) ;
#875 = ORIENTED_EDGE ( 'NONE', *, *, #932, .T. ) ;
#876 = DIRECTION ( 'NONE',  ( 0.000000000000000000, 0.000000000000000000, 1.000000000000000000 ) ) ;
#877 = CARTESIAN_POINT ( 'NONE',  ( 53.97511189321576097, -3.175006350012608003, 0.000000000000000000 ) ) ;
#878 = DIRECTION ( 'NONE',  ( -1.000000000000000000, 0.000000000000000000, 0.000000000000000000 ) ) ;
#879 = ORIENTED_EDGE ( 'NONE', *, *, #949, .T. ) ;
#880 = EDGE_LOOP ( 'NONE', ( #407, #999, #195, #1156 ) ) ;
#881 = CARTESIAN_POINT ( 'NONE',  ( 53.97699900737234913, 0.000000000000000000, 5.000000000000000000 ) ) ;
#882 = VERTEX_POINT ( 'NONE', #944 ) ;
#883 = VECTOR ( 'NONE', #59, 1000.000000000000000 ) ;
#884 = CIRCLE ( 'NONE', #353, 1.499999999999999556 ) ;
#885 = FACE_OUTER_BOUND ( 'NONE', #929, .T. ) ;
#886 = AXIS2_PLACEMENT_3D ( 'NONE', #862, #582, #616 ) ;
#887 = EDGE_CURVE ( 'NONE', #24, #395, #78, .T. ) ;
#888 = DIRECTION ( 'NONE',  ( 1.000000000000000000, 0.000000000000000000, 0.000000000000000000 ) ) ;
#889 = VERTEX_POINT ( 'NONE', #561 ) ;
#890 = DIRECTION ( 'NONE',  ( -1.000000000000000000, 0.000000000000000000, 0.000000000000000000 ) ) ;
#891 = DIRECTION ( 'NONE',  ( 0.000000000000000000, 0.000000000000000000, 1.000000000000000000 ) ) ;
#892 = ORIENTED_EDGE ( 'NONE', *, *, #197, .T. ) ;
#893 = DIRECTION ( 'NONE',  ( -1.000000000000000000, 0.000000000000000000, 0.000000000000000000 ) ) ;
#894 = EDGE_CURVE ( 'NONE', #216, #998, #677, .T. ) ;
#895 = DIRECTION ( 'NONE',  ( -0.000000000000000000, -0.000000000000000000, -1.000000000000000000 ) ) ;
#896 = ORIENTED_EDGE ( 'NONE', *, *, #469, .T. ) ;
#897 = FACE_OUTER_BOUND ( 'NONE', #235, .T. ) ;
#898 = APPROVAL_DATE_TIME ( #38, #85 ) ;
#899 = ORIENTED_EDGE ( 'NONE', *, *, #12, .T. ) ;
#900 = LINE ( 'NONE', #337, #528 ) ;
#901 = CARTESIAN_POINT ( 'NONE',  ( 0.000000000000000000, 0.000000000000000000, 5.000000000000000000 ) ) ;
#902 = CC_DESIGN_PERSON_AND_ORGANIZATION_ASSIGNMENT ( #136, #431, ( #299 ) ) ;
#903 = ORIENTED_EDGE ( 'NONE', *, *, #1055, .T. ) ;
#904 = DIRECTION ( 'NONE',  ( 1.000000000000000000, 0.000000000000000000, 0.000000000000000000 ) ) ;
#905 = DATE_TIME_ROLE ( 'creation_date' ) ;
#906 = EDGE_CURVE ( 'NONE', #246, #498, #840, .T. ) ;
#907 = ORIENTED_EDGE ( 'NONE', *, *, #959, .F. ) ;
#908 = CIRCLE ( 'NONE', #1107, 1.499999999999994449 ) ;
#909 = DIRECTION ( 'NONE',  ( -1.000000000000000000, 0.000000000000000000, 0.000000000000000000 ) ) ;
#910 = DIRECTION ( 'NONE',  ( 0.000000000000000000, -1.000000000000000000, 0.000000000000000000 ) ) ;
#911 = AXIS2_PLACEMENT_3D ( 'NONE', #595, #785, #409 ) ;
#912 = DIRECTION ( 'NONE',  ( -0.000000000000000000, 0.000000000000000000, 1.000000000000000000 ) ) ;
#913 = PERSON_AND_ORGANIZATION ( #645, #851 ) ;
#914 = VERTEX_POINT ( 'NONE', #743 ) ;
#915 = EDGE_CURVE ( 'NONE', #111, #6, #1232, .T. ) ;
#916 = CARTESIAN_POINT ( 'NONE',  ( 3.175006350012610223, -82.42316484632964091, 0.000000000000000000 ) ) ;
#917 = CYLINDRICAL_SURFACE ( 'NONE', #674, 1.499999999999994449 ) ;
#918 = CARTESIAN_POINT ( 'NONE',  ( -2.368445048186592350E-15, -3.180010160020173338, 5.000000000000000000 ) ) ;
#919 = VERTEX_POINT ( 'NONE', #459 ) ;
#920 = CARTESIAN_POINT ( 'NONE',  ( 4.675006350012608003, -82.42316484632964091, 5.000000000000000000 ) ) ;
#921 = FACE_BOUND ( 'NONE', #566, .T. ) ;
#922 = CARTESIAN_POINT ( 'NONE',  ( 0.000000000000000000, -3.175006350012608003, 5.000000000000000000 ) ) ;
#923 = DIRECTION ( 'NONE',  ( -0.000000000000000000, -0.000000000000000000, -1.000000000000000000 ) ) ;
#924 = CARTESIAN_POINT ( 'NONE',  ( 3.175006350012608447, -3.175006350012608447, 5.000000000000000000 ) ) ;
#925 = EDGE_CURVE ( 'NONE', #998, #216, #255, .T. ) ;
#926 = CIRCLE ( 'NONE', #352, 3.175010293012446638 ) ;
#927 = CARTESIAN_POINT ( 'NONE',  ( -0.000000000000000000, -54.67500635001260889, 0.000000000000000000 ) ) ;
#928 = VECTOR ( 'NONE', #375, 1000.000000000000000 ) ;
#929 = EDGE_LOOP ( 'NONE', ( #667, #820, #214, #892 ) ) ;
#930 = CARTESIAN_POINT ( 'NONE',  ( 3.175006350012608447, -3.175006350012608447, 0.000000000000000000 ) ) ;
#931 = CARTESIAN_POINT ( 'NONE',  ( 28.80010160020332322, -54.67500635001260889, 5.000000000000000000 ) ) ;
#932 = EDGE_CURVE ( 'NONE', #1097, #498, #750, .T. ) ;
#933 = CARTESIAN_POINT ( 'NONE',  ( 50.80010160020333387, -82.42316484632964091, 5.000000000000000000 ) ) ;
#934 = ORIENTED_EDGE ( 'NONE', *, *, #600, .F. ) ;
#935 = CARTESIAN_POINT ( 'NONE',  ( 3.175006350012608003, -79.24632575192929096, 0.000000000000000000 ) ) ;
#936 = CARTESIAN_POINT ( 'NONE',  ( -3.942999837660415841E-06, -3.175006350012608447, 5.000000000000000000 ) ) ;
#937 = ORIENTED_EDGE ( 'NONE', *, *, #1073, .F. ) ;
#938 = DIRECTION ( 'NONE',  ( 1.000000000000000000, 0.000000000000000000, 0.000000000000000000 ) ) ;
#939 = ORIENTED_EDGE ( 'NONE', *, *, #973, .F. ) ;
#940 = EDGE_CURVE ( 'NONE', #466, #662, #541, .T. ) ;
#941 = DIRECTION ( 'NONE',  ( 0.000000000000000000, -0.000000000000000000, -1.000000000000000000 ) ) ;
#942 = DIRECTION ( 'NONE',  ( 1.000000000000000000, 0.000000000000000000, 0.000000000000000000 ) ) ;
#943 = ORIENTED_EDGE ( 'NONE', *, *, #579, .F. ) ;
#944 = CARTESIAN_POINT ( 'NONE',  ( 50.80010160020332677, -6.350016643025054641, 5.000000000000000000 ) ) ;
#945 = AXIS2_PLACEMENT_3D ( 'NONE', #478, #482, #956 ) ;
#946 = VECTOR ( 'NONE', #666, 1000.000000000000000 ) ;
#947 = ORIENTED_EDGE ( 'NONE', *, *, #132, .T. ) ;
#948 = DIRECTION ( 'NONE',  ( 0.000000000000000000, -1.000000000000000000, 0.000000000000000000 ) ) ;
#949 = EDGE_CURVE ( 'NONE', #608, #789, #640, .T. ) ;
#950 = DIRECTION ( 'NONE',  ( -0.000000000000000000, -0.000000000000000000, -1.000000000000000000 ) ) ;
#951 = VERTEX_POINT ( 'NONE', #1132 ) ;
#952 = DIRECTION ( 'NONE',  ( -1.000000000000000000, -4.368346228775808535E-15, 0.000000000000000000 ) ) ;
#953 = ORIENTED_EDGE ( 'NONE', *, *, #35, .T. ) ;
#954 = FACE_BOUND ( 'NONE', #458, .T. ) ;
#955 = EDGE_CURVE ( 'NONE', #388, #1191, #1207, .T. ) ;
#956 = DIRECTION ( 'NONE',  ( 1.000000000000000000, 0.000000000000000000, 0.000000000000000000 ) ) ;
#957 = ORIENTED_EDGE ( 'NONE', *, *, #197, .F. ) ;
#958 = CARTESIAN_POINT ( 'NONE',  ( 3.175006350012608447, -3.175006350012608447, 5.000000000000000000 ) ) ;
#959 = EDGE_CURVE ( 'NONE', #83, #24, #166, .T. ) ;
#960 = DIRECTION ( 'NONE',  ( 0.000000000000000000, 1.000000000000000000, -0.000000000000000000 ) ) ;
#961 = ORIENTED_EDGE ( 'NONE', *, *, #373, .T. ) ;
#962 = DIRECTION ( 'NONE',  ( 0.000000000000000000, 1.000000000000000000, -0.000000000000000000 ) ) ;
#963 = CIRCLE ( 'NONE', #404, 3.176839094400347729 ) ;
#964 = VECTOR ( 'NONE', #274, 1000.000000000000000 ) ;
#965 = DIRECTION ( 'NONE',  ( 0.000000000000000000, 1.000000000000000000, -0.000000000000000000 ) ) ;
#966 = ORIENTED_EDGE ( 'NONE', *, *, #140, .T. ) ;
#967 = CYLINDRICAL_SURFACE ( 'NONE', #911, 3.175010293012446194 ) ;
#968 = CARTESIAN_POINT ( 'NONE',  ( 53.97699900737234913, 0.000000000000000000, 0.000000000000000000 ) ) ;
#969 = LINE ( 'NONE', #99, #504 ) ;
#970 = VERTEX_POINT ( 'NONE', #651 ) ;
#971 = ORIENTED_EDGE ( 'NONE', *, *, #150, .T. ) ;
#972 = ORIENTED_EDGE ( 'NONE', *, *, #3, .F. ) ;
#973 = EDGE_CURVE ( 'NONE', #560, #801, #735, .T. ) ;
#974 = DIRECTION ( 'NONE',  ( -0.000000000000000000, 0.000000000000000000, 1.000000000000000000 ) ) ;
#975 = CARTESIAN_POINT ( 'NONE',  ( 50.80010160020330545, -3.175006350012608447, 0.000000000000000000 ) ) ;
#976 = APPLICATION_CONTEXT ( 'configuration controlled 3d designs of mechanical parts and assemblies' ) ;
#977 = ORIENTED_EDGE ( 'NONE', *, *, #1143, .F. ) ;
#978 = CARTESIAN_POINT ( 'NONE',  ( 0.000000000000000000, -82.42316484632965512, 5.000000000000000000 ) ) ;
#979 = LINE ( 'NONE', #127, #1062 ) ;
#980 = ORIENTED_EDGE ( 'NONE', *, *, #764, .T. ) ;
#981 = AXIS2_PLACEMENT_3D ( 'NONE', #1108, #442, #730 ) ;
#982 = EDGE_CURVE ( 'NONE', #111, #275, #351, .T. ) ;
#983 = VECTOR ( 'NONE', #833, 1000.000000000000000 ) ;
#984 = FACE_OUTER_BOUND ( 'NONE', #14, .T. ) ;
#985 = VECTOR ( 'NONE', #759, 1000.000000000000000 ) ;
#986 = FACE_OUTER_BOUND ( 'NONE', #417, .T. ) ;
#987 = ORIENTED_EDGE ( 'NONE', *, *, #815, .T. ) ;
#988 = DIRECTION ( 'NONE',  ( -0.000000000000000000, -0.000000000000000000, -1.000000000000000000 ) ) ;
#989 = FACE_OUTER_BOUND ( 'NONE', #138, .T. ) ;
#990 = VERTEX_POINT ( 'NONE', #556 ) ;
#991 = VERTEX_POINT ( 'NONE', #259 ) ;
#992 = DIRECTION ( 'NONE',  ( 0.000000000000000000, 1.000000000000000000, -0.000000000000000000 ) ) ;
#993 = EDGE_CURVE ( 'NONE', #192, #914, #550, .T. ) ;
#994 = EDGE_CURVE ( 'NONE', #791, #473, #1034, .T. ) ;
#995 = ORIENTED_EDGE ( 'NONE', *, *, #835, .T. ) ;
#996 = PLANE ( 'NONE',  #506 ) ;
#997 = MECHANICAL_CONTEXT ( 'NONE', #976, 'mechanical' ) ;
#998 = VERTEX_POINT ( 'NONE', #465 ) ;
#999 = ORIENTED_EDGE ( 'NONE', *, *, #336, .F. ) ;
#1000 = APPROVAL_DATE_TIME ( #75, #568 ) ;
#1001 = CYLINDRICAL_SURFACE ( 'NONE', #1045, 3.175010293012446638 ) ;
#1002 = DIRECTION ( 'NONE',  ( -0.000000000000000000, -0.000000000000000000, -1.000000000000000000 ) ) ;
#1003 = EDGE_CURVE ( 'NONE', #95, #1063, #5, .T. ) ;
#1004 = CARTESIAN_POINT ( 'NONE',  ( 50.80010160020330545, -3.175006350012608447, 5.000000000000000000 ) ) ;
#1005 = ORIENTED_EDGE ( 'NONE', *, *, #423, .F. ) ;
#1006 = ORIENTED_EDGE ( 'NONE', *, *, #1213, .T. ) ;
#1007 = VECTOR ( 'NONE', #786, 1000.000000000000000 ) ;
#1008 = CARTESIAN_POINT ( 'NONE',  ( 49.30010160020333387, -82.42316484632964091, 5.000000000000000000 ) ) ;
#1009 = CIRCLE ( 'NONE', #734, 3.176839094400355279 ) ;
#1010 = LINE ( 'NONE', #1019, #732 ) ;
#1011 = AXIS2_PLACEMENT_3D ( 'NONE', #416, #494, #484 ) ;
#1012 = LINE ( 'NONE', #627, #272 ) ;
#1013 = ORIENTED_EDGE ( 'NONE', *, *, #906, .T. ) ;
#1014 = CARTESIAN_POINT ( 'NONE',  ( 3.175006350012608003, -6.350016643025054641, 5.000000000000000000 ) ) ;
#1015 = CARTESIAN_POINT ( 'NONE',  ( 3.175006350012610223, -82.42316484632964091, 0.000000000000000000 ) ) ;
#1016 = CARTESIAN_POINT ( 'NONE',  ( 52.30010160020332677, -3.175006350012608447, 5.000000000000000000 ) ) ;
#1017 = EDGE_CURVE ( 'NONE', #998, #80, #1051, .T. ) ;
#1018 = CARTESIAN_POINT ( 'NONE',  ( 50.80010160020331966, -53.67500635001261600, 5.000000000000000000 ) ) ;
#1019 = CARTESIAN_POINT ( 'NONE',  ( 0.000000000000000000, -82.42316484632965512, 5.000000000000000000 ) ) ;
#1020 = DIRECTION ( 'NONE',  ( -0.000000000000000000, 0.000000000000000000, 1.000000000000000000 ) ) ;
#1021 = EDGE_LOOP ( 'NONE', ( #1013, #1184, #297, #763 ) ) ;
#1022 = DIRECTION ( 'NONE',  ( 0.000000000000000000, 1.000000000000000000, 0.000000000000000000 ) ) ;
#1023 = EDGE_CURVE ( 'NONE', #1069, #748, #564, .T. ) ;
#1024 = DIRECTION ( 'NONE',  ( -0.000000000000000000, -0.000000000000000000, -1.000000000000000000 ) ) ;
#1025 = AXIS2_PLACEMENT_3D ( 'NONE', #1228, #171, #553 ) ;
#1026 = CIRCLE ( 'NONE', #126, 3.175010293012446638 ) ;
#1027 = CARTESIAN_POINT ( 'NONE',  ( 26.98104366549159749, -53.67500635001261600, 5.000000000000000000 ) ) ;
#1028 = VECTOR ( 'NONE', #361, 1000.000000000000000 ) ;
#1029 = VERTEX_POINT ( 'NONE', #1030 ) ;
#1030 = CARTESIAN_POINT ( 'NONE',  ( 26.98104366549159749, -79.92316484632965512, 0.000000000000000000 ) ) ;
#1031 = CARTESIAN_POINT ( 'NONE',  ( -6.146844504818658830E-14, -82.53105974467828787, 0.000000000000000000 ) ) ;
#1032 = VERTEX_POINT ( 'NONE', #1246 ) ;
#1033 = EDGE_CURVE ( 'NONE', #278, #246, #1146, .T. ) ;
#1034 = LINE ( 'NONE', #84, #1168 ) ;
#1035 = VERTEX_POINT ( 'NONE', #196 ) ;
#1036 = CARTESIAN_POINT ( 'NONE',  ( 0.000000000000000000, -79.92316484632965512, 5.000000000000000000 ) ) ;
#1037 = PLANE ( 'NONE',  #427 ) ;
#1038 = ORIENTED_EDGE ( 'NONE', *, *, #434, .T. ) ;
#1039 = DIRECTION ( 'NONE',  ( -0.000000000000000000, -0.000000000000000000, -1.000000000000000000 ) ) ;
#1040 = EDGE_CURVE ( 'NONE', #1123, #1035, #177, .T. ) ;
#1041 = EDGE_LOOP ( 'NONE', ( #899, #814 ) ) ;
#1042 = PLANE ( 'NONE',  #1212 ) ;
#1043 = DIRECTION ( 'NONE',  ( -0.000000000000000000, -0.000000000000000000, -1.000000000000000000 ) ) ;
#1044 = VERTEX_POINT ( 'NONE', #935 ) ;
#1045 = AXIS2_PLACEMENT_3D ( 'NONE', #1070, #131, #496 ) ;
#1046 = CARTESIAN_POINT ( 'NONE',  ( 3.175006350012610223, -82.42316484632964091, 5.000000000000000000 ) ) ;
#1047 = AXIS2_PLACEMENT_3D ( 'NONE', #147, #345, #356 ) ;
#1048 = EDGE_CURVE ( 'NONE', #100, #791, #680, .T. ) ;
#1049 = VECTOR ( 'NONE', #30, 1000.000000000000000 ) ;
#1050 = ORIENTED_EDGE ( 'NONE', *, *, #710, .T. ) ;
#1051 = LINE ( 'NONE', #389, #810 ) ;
#1052 = DIRECTION ( 'NONE',  ( -0.000000000000000000, 0.000000000000000000, 1.000000000000000000 ) ) ;
#1053 = ORIENTED_EDGE ( 'NONE', *, *, #955, .F. ) ;
#1054 = DIRECTION ( 'NONE',  ( -0.000000000000000000, 0.000000000000000000, 1.000000000000000000 ) ) ;
#1055 = EDGE_CURVE ( 'NONE', #466, #29, #487, .T. ) ;
#1056 = DIRECTION ( 'NONE',  ( -0.000000000000000000, -0.000000000000000000, -1.000000000000000000 ) ) ;
#1057 = ORIENTED_EDGE ( 'NONE', *, *, #263, .T. ) ;
#1058 = CARTESIAN_POINT ( 'NONE',  ( 50.80010160020330545, -3.175006350012608447, 0.000000000000000000 ) ) ;
#1059 = VECTOR ( 'NONE', #992, 1000.000000000000000 ) ;
#1060 = VERTEX_POINT ( 'NONE', #558 ) ;
#1061 = AXIS2_PLACEMENT_3D ( 'NONE', #135, #796, #515 ) ;
#1062 = VECTOR ( 'NONE', #115, 1000.000000000000000 ) ;
#1063 = VERTEX_POINT ( 'NONE', #1236 ) ;
#1064 = CARTESIAN_POINT ( 'NONE',  ( 50.80010160020332677, 3.942999837700000231E-06, 5.000000000000000000 ) ) ;
#1065 = EDGE_CURVE ( 'NONE', #714, #36, #71, .T. ) ;
#1066 = ORIENTED_EDGE ( 'NONE', *, *, #993, .F. ) ;
#1067 = ORIENTED_EDGE ( 'NONE', *, *, #1040, .F. ) ;
#1068 = DIRECTION ( 'NONE',  ( -1.000000000000000000, 0.000000000000000000, 0.000000000000000000 ) ) ;
#1069 = VERTEX_POINT ( 'NONE', #288 ) ;
#1070 = CARTESIAN_POINT ( 'NONE',  ( 50.80010160020330545, -3.175006350012608447, 5.000000000000000000 ) ) ;
#1071 = CARTESIAN_POINT ( 'NONE',  ( 50.80010160020332677, 3.942999837700000231E-06, 5.000000000000000000 ) ) ;
#1072 = ORIENTED_EDGE ( 'NONE', *, *, #579, .T. ) ;
#1073 = EDGE_CURVE ( 'NONE', #801, #1029, #772, .T. ) ;
#1074 = DIRECTION ( 'NONE',  ( -0.000000000000000000, 0.000000000000000000, 1.000000000000000000 ) ) ;
#1075 = DIRECTION ( 'NONE',  ( -0.000000000000000000, -0.000000000000000000, -1.000000000000000000 ) ) ;
#1076 = ORIENTED_EDGE ( 'NONE', *, *, #600, .T. ) ;
#1077 = LINE ( 'NONE', #402, #1007 ) ;
#1078 = DIRECTION ( 'NONE',  ( -0.000000000000000000, -0.000000000000000000, -1.000000000000000000 ) ) ;
#1079 = ORIENTED_EDGE ( 'NONE', *, *, #423, .T. ) ;
#1080 = CARTESIAN_POINT ( 'NONE',  ( 3.175006350012608447, -3.175006350012608447, 0.000000000000000000 ) ) ;
#1081 =( NAMED_UNIT ( * ) PLANE_ANGLE_UNIT ( ) SI_UNIT ( $, .RADIAN. ) );
#1082 = ORIENTED_EDGE ( 'NONE', *, *, #16, .F. ) ;
#1083 = AXIS2_PLACEMENT_3D ( 'NONE', #425, #806, #711 ) ;
#1084 = VECTOR ( 'NONE', #1144, 1000.000000000000000 ) ;
#1085 = EDGE_CURVE ( 'NONE', #560, #428, #101, .T. ) ;
#1086 = DIRECTION ( 'NONE',  ( 1.000000000000000000, -7.447916607195894673E-16, 0.000000000000000000 ) ) ;
#1087 = CIRCLE ( 'NONE', #433, 3.176839094400355279 ) ;
#1088 = APPROVAL_PERSON_ORGANIZATION ( #804, #776, #1099 ) ;
#1089 = EDGE_LOOP ( 'NONE', ( #314, #514, #328, #1202 ) ) ;
#1090 = DIRECTION ( 'NONE',  ( -0.000000000000000000, 0.000000000000000000, 1.000000000000000000 ) ) ;
#1091 = COORDINATED_UNIVERSAL_TIME_OFFSET ( 8, 0, .AHEAD. ) ;
#1092 = ORIENTED_EDGE ( 'NONE', *, *, #412, .T. ) ;
#1093 = DESIGN_CONTEXT ( 'detailed design', #93, 'design' ) ;
#1094 = ORIENTED_EDGE ( 'NONE', *, *, #982, .F. ) ;
#1095 = ADVANCED_FACE ( 'NONE', ( #105 ), #1221, .T. ) ;
#1096 = LINE ( 'NONE', #625, #22 ) ;
#1097 = VERTEX_POINT ( 'NONE', #81 ) ;
#1098 = DIRECTION ( 'NONE',  ( 1.000000000000000000, 0.000000000000000000, 0.000000000000000000 ) ) ;
#1099 = APPROVAL_ROLE ( '' ) ;
#1100 = ORIENTED_EDGE ( 'NONE', *, *, #865, .F. ) ;
#1101 = EDGE_LOOP ( 'NONE', ( #86, #380, #39, #581 ) ) ;
#1102 = DIRECTION ( 'NONE',  ( 1.000000000000000000, 0.000000000000000000, 0.000000000000000000 ) ) ;
#1103 = PLANE ( 'NONE',  #1047 ) ;
#1104 = PLANE ( 'NONE',  #1061 ) ;
#1105 = ORIENTED_EDGE ( 'NONE', *, *, #1073, .T. ) ;
#1106 = DATE_AND_TIME ( #646, #552 ) ;
#1107 = AXIS2_PLACEMENT_3D ( 'NONE', #551, #741, #1102 ) ;
#1108 = CARTESIAN_POINT ( 'NONE',  ( 3.175006350012608447, -3.175006350012608447, 0.000000000000000000 ) ) ;
#1109 = CIRCLE ( 'NONE', #1149, 1.499999999999999556 ) ;
#1110 = DIRECTION ( 'NONE',  ( -0.000000000000000000, -0.000000000000000000, -1.000000000000000000 ) ) ;
#1111 = AXIS2_PLACEMENT_3D ( 'NONE', #401, #1068, #891 ) ;
#1112 = LOCAL_TIME ( 15, 41, 44.00000000000000000, #1091 ) ;
#1113 = CARTESIAN_POINT ( 'NONE',  ( 0.000000000000000000, -85.60000394073000507, 0.000000000000000000 ) ) ;
#1114 = ADVANCED_FACE ( 'NONE', ( #954, #654, #369, #837, #96, #364 ), #1042, .T. ) ;
#1115 = CARTESIAN_POINT ( 'NONE',  ( 50.80010160020332677, -7.448422440110376632E-15, 5.000000000000000000 ) ) ;
#1116 = FACE_OUTER_BOUND ( 'NONE', #854, .T. ) ;
#1117 = DIRECTION ( 'NONE',  ( 1.000000000000000000, 0.000000000000000000, 0.000000000000000000 ) ) ;
#1118 = EDGE_CURVE ( 'NONE', #889, #278, #1087, .T. ) ;
#1119 = PERSON_AND_ORGANIZATION_ROLE ( 'classification_officer' ) ;
#1120 = CARTESIAN_POINT ( 'NONE',  ( 52.30010160020332677, -3.175006350012608447, 5.000000000000000000 ) ) ;
#1121 = PLANE ( 'NONE',  #330 ) ;
#1122 = DIRECTION ( 'NONE',  ( -0.000000000000000000, 0.000000000000000000, 1.000000000000000000 ) ) ;
#1123 = VERTEX_POINT ( 'NONE', #189 ) ;
#1124 = CARTESIAN_POINT ( 'NONE',  ( 50.80010160020331966, -53.67500635001261600, 5.000000000000000000 ) ) ;
#1125 = LINE ( 'NONE', #936, #570 ) ;
#1126 = ADVANCED_FACE ( 'NONE', ( #200 ), #857, .T. ) ;
#1127 = VECTOR ( 'NONE', #768, 1000.000000000000000 ) ;
#1128 = AXIS2_PLACEMENT_3D ( 'NONE', #664, #1222, #384 ) ;
#1129 = EDGE_LOOP ( 'NONE', ( #953, #795, #43, #875 ) ) ;
#1130 = ORIENTED_EDGE ( 'NONE', *, *, #1023, .F. ) ;
#1131 = AXIS2_PLACEMENT_3D ( 'NONE', #1173, #1090, #429 ) ;
#1132 = CARTESIAN_POINT ( 'NONE',  ( 6.351845444412957065, -82.42316484632965512, 5.000000000000000000 ) ) ;
#1133 = VECTOR ( 'NONE', #468, 1000.000000000000000 ) ;
#1134 = EDGE_LOOP ( 'NONE', ( #368, #697, #844, #934, #293, #1082, #1137, #700, #660, #1175, #577, #1231, #483, #781 ) ) ;
#1135 = LINE ( 'NONE', #183, #1133 ) ;
#1136 = DIRECTION ( 'NONE',  ( -7.447916607195894673E-16, -1.000000000000000000, 0.000000000000000000 ) ) ;
#1137 = ORIENTED_EDGE ( 'NONE', *, *, #35, .F. ) ;
#1138 = CARTESIAN_POINT ( 'NONE',  ( 3.175006350012610223, -82.42316484632964091, 5.000000000000000000 ) ) ;
#1139 = ORIENTED_EDGE ( 'NONE', *, *, #295, .T. ) ;
#1140 = DIRECTION ( 'NONE',  ( -0.000000000000000000, -0.000000000000000000, -1.000000000000000000 ) ) ;
#1141 = LINE ( 'NONE', #843, #19 ) ;
#1142 = EDGE_LOOP ( 'NONE', ( #41, #709, #947, #1160 ) ) ;
#1143 = EDGE_CURVE ( 'NONE', #1035, #1182, #1135, .T. ) ;
#1144 = DIRECTION ( 'NONE',  ( -0.000000000000000000, -0.000000000000000000, -1.000000000000000000 ) ) ;
#1145 = ORIENTED_EDGE ( 'NONE', *, *, #650, .T. ) ;
#1146 = LINE ( 'NONE', #1242, #736 ) ;
#1147 = DIRECTION ( 'NONE',  ( 1.000000000000000000, 0.000000000000000000, 0.000000000000000000 ) ) ;
#1148 = LINE ( 'NONE', #291, #548 ) ;
#1149 = AXIS2_PLACEMENT_3D ( 'NONE', #924, #738, #649 ) ;
#1150 = AXIS2_PLACEMENT_3D ( 'NONE', #958, #767, #1226 ) ;
#1151 = ORIENTED_EDGE ( 'NONE', *, *, #779, .F. ) ;
#1152 = EDGE_CURVE ( 'NONE', #6, #111, #306, .T. ) ;
#1153 = CARTESIAN_POINT ( 'NONE',  ( 26.98104366549159749, 0.000000000000000000, 0.000000000000000000 ) ) ;
#1154 = ADVANCED_BREP_SHAPE_REPRESENTATION ( '读卡器边框', ( #1183, #257 ), #130 ) ;
#1155 = DIRECTION ( 'NONE',  ( -1.000000000000000000, 0.000000000000000000, 0.000000000000000000 ) ) ;
#1156 = ORIENTED_EDGE ( 'NONE', *, *, #64, .T. ) ;
#1157 = CARTESIAN_POINT ( 'NONE',  ( 28.80010160020332322, -54.67500635001260889, 0.000000000000000000 ) ) ;
#1158 = EDGE_CURVE ( 'NONE', #1172, #158, #509, .T. ) ;
#1159 = CARTESIAN_POINT ( 'NONE',  ( 53.97699900737234913, -76.92316484632964091, 5.000000000000000000 ) ) ;
#1160 = ORIENTED_EDGE ( 'NONE', *, *, #206, .T. ) ;
#1161 = APPLICATION_PROTOCOL_DEFINITION ( 'international standard', 'config_control_design', 1994, #976 ) ;
#1162 = EDGE_CURVE ( 'NONE', #889, #301, #1167, .T. ) ;
#1163 = LINE ( 'NONE', #305, #430 ) ;
#1164 = AXIS2_PLACEMENT_3D ( 'NONE', #631, #1204, #349 ) ;
#1165 = ORIENTED_EDGE ( 'NONE', *, *, #894, .F. ) ;
#1166 = AXIS2_PLACEMENT_3D ( 'NONE', #678, #1052, #488 ) ;
#1167 = LINE ( 'NONE', #587, #531 ) ;
#1168 = VECTOR ( 'NONE', #186, 1000.000000000000000 ) ;
#1169 = DIRECTION ( 'NONE',  ( -0.000000000000000000, -0.000000000000000000, -1.000000000000000000 ) ) ;
#1170 = ADVANCED_FACE ( 'NONE', ( #205 ), #967, .T. ) ;
#1171 = CARTESIAN_POINT ( 'NONE',  ( 52.30010160020332677, -82.42316484632964091, 0.000000000000000000 ) ) ;
#1172 = VERTEX_POINT ( 'NONE', #230 ) ;
#1173 = CARTESIAN_POINT ( 'NONE',  ( 3.175006350012610223, -82.42316484632964091, 0.000000000000000000 ) ) ;
#1174 = PLANE ( 'NONE',  #1111 ) ;
#1175 = ORIENTED_EDGE ( 'NONE', *, *, #295, .F. ) ;
#1176 = CARTESIAN_POINT ( 'NONE',  ( 50.80010160020333387, -82.42316484632964091, 0.000000000000000000 ) ) ;
#1177 = DIRECTION ( 'NONE',  ( -0.000000000000000000, 0.000000000000000000, 1.000000000000000000 ) ) ;
#1178 = EDGE_CURVE ( 'NONE', #388, #395, #309, .T. ) ;
#1179 = ORIENTED_EDGE ( 'NONE', *, *, #562, .T. ) ;
#1180 = LINE ( 'NONE', #707, #529 ) ;
#1181 = EDGE_CURVE ( 'NONE', #1060, #56, #601, .T. ) ;
#1182 = VERTEX_POINT ( 'NONE', #316 ) ;
#1183 = MANIFOLD_SOLID_BREP ( '凸台-拉伸1', #303 ) ;
#1184 = ORIENTED_EDGE ( 'NONE', *, *, #932, .F. ) ;
#1185 = LINE ( 'NONE', #117, #751 ) ;
#1186 = ORIENTED_EDGE ( 'NONE', *, *, #1181, .F. ) ;
#1187 = LINE ( 'NONE', #329, #193 ) ;
#1188 = PERSON_AND_ORGANIZATION_ROLE ( 'creator' ) ;
#1189 = ORIENTED_EDGE ( 'NONE', *, *, #718, .T. ) ;
#1190 = EDGE_CURVE ( 'NONE', #970, #990, #979, .T. ) ;
#1191 = VERTEX_POINT ( 'NONE', #1157 ) ;
#1192 = VECTOR ( 'NONE', #276, 1000.000000000000000 ) ;
#1193 = FACE_OUTER_BOUND ( 'NONE', #227, .T. ) ;
#1194 = ORIENTED_EDGE ( 'NONE', *, *, #770, .F. ) ;
#1195 = CARTESIAN_POINT ( 'NONE',  ( 28.80010160020332322, -54.67500635001260889, 5.000000000000000000 ) ) ;
#1196 = SECURITY_CLASSIFICATION_LEVEL ( 'unclassified' ) ;
#1197 = ORIENTED_EDGE ( 'NONE', *, *, #249, .T. ) ;
#1198 = CARTESIAN_POINT ( 'NONE',  ( 1.675006350012612444, -82.42316484632964091, 0.000000000000000000 ) ) ;
#1199 = FACE_BOUND ( 'NONE', #91, .T. ) ;
#1200 = LINE ( 'NONE', #722, #689 ) ;
#1201 = CARTESIAN_POINT ( 'NONE',  ( 0.000000000000000000, 0.000000000000000000, 0.000000000000000000 ) ) ;
#1202 = ORIENTED_EDGE ( 'NONE', *, *, #733, .T. ) ;
#1203 = SHAPE_DEFINITION_REPRESENTATION ( #583, #1154 ) ;
#1204 = DIRECTION ( 'NONE',  ( -0.000000000000000000, 0.000000000000000000, 1.000000000000000000 ) ) ;
#1205 = CARTESIAN_POINT ( 'NONE',  ( 53.97699900737234913, -82.42316484632965512, 5.000000000000000000 ) ) ;
#1206 = ADVANCED_FACE ( 'NONE', ( #31 ), #702, .T. ) ;
#1207 = LINE ( 'NONE', #927, #964 ) ;
#1208 = VECTOR ( 'NONE', #160, 1000.000000000000000 ) ;
#1209 = CARTESIAN_POINT ( 'NONE',  ( 50.80010160020330545, -3.175006350012608447, 0.000000000000000000 ) ) ;
#1210 = VECTOR ( 'NONE', #860, 1000.000000000000000 ) ;
#1211 = DIRECTION ( 'NONE',  ( -0.000000000000000000, 0.000000000000000000, 1.000000000000000000 ) ) ;
#1212 = AXIS2_PLACEMENT_3D ( 'NONE', #476, #1054, #462 ) ;
#1213 = EDGE_CURVE ( 'NONE', #1097, #441, #354, .T. ) ;
#1214 = CARTESIAN_POINT ( 'NONE',  ( 0.000000000000000000, -3.175006350012608003, 0.000000000000000000 ) ) ;
#1215 = COORDINATED_UNIVERSAL_TIME_OFFSET ( 8, 0, .AHEAD. ) ;
#1216 = FACE_OUTER_BOUND ( 'NONE', #1021, .T. ) ;
#1217 = PLANE ( 'NONE',  #270 ) ;
#1218 = CARTESIAN_POINT ( 'NONE',  ( 0.000000000000000000, 3.942999837700000231E-06, 5.000000000000000000 ) ) ;
#1219 = EDGE_LOOP ( 'NONE', ( #729, #1057, #605, #1194 ) ) ;
#1220 = ADVANCED_FACE ( 'NONE', ( #989 ), #867, .F. ) ;
#1221 = PLANE ( 'NONE',  #92 ) ;
#1222 = DIRECTION ( 'NONE',  ( -0.000000000000000000, -0.000000000000000000, -1.000000000000000000 ) ) ;
#1223 = EDGE_LOOP ( 'NONE', ( #414, #971 ) ) ;
#1224 = PLANE ( 'NONE',  #774 ) ;
#1225 = ORIENTED_EDGE ( 'NONE', *, *, #10, .T. ) ;
#1226 = DIRECTION ( 'NONE',  ( 1.000000000000000000, 0.000000000000000000, 0.000000000000000000 ) ) ;
#1227 = ADVANCED_FACE ( 'NONE', ( #7 ), #1174, .F. ) ;
#1228 = CARTESIAN_POINT ( 'NONE',  ( 3.175006350012610223, -82.42316484632964091, 5.000000000000000000 ) ) ;
#1229 = VECTOR ( 'NONE', #909, 1000.000000000000000 ) ;
#1230 = CIRCLE ( 'NONE', #1131, 3.176839094400347729 ) ;
#1231 = ORIENTED_EDGE ( 'NONE', *, *, #173, .F. ) ;
#1232 = CIRCLE ( 'NONE', #392, 1.500000000000022204 ) ;
#1233 = DIRECTION ( 'NONE',  ( -0.000000000000000000, 0.000000000000000000, 1.000000000000000000 ) ) ;
#1234 = APPROVAL_PERSON_ORGANIZATION ( #913, #85, #440 ) ;
#1235 = ORIENTED_EDGE ( 'NONE', *, *, #925, .F. ) ;
#1236 = CARTESIAN_POINT ( 'NONE',  ( 6.350016643025054641, -3.175006350012608003, 0.000000000000000000 ) ) ;
#1237 = EDGE_CURVE ( 'NONE', #970, #1044, #797, .T. ) ;
#1238 = CYLINDRICAL_SURFACE ( 'NONE', #151, 1.499999999999999556 ) ;
#1239 = EDGE_LOOP ( 'NONE', ( #811, #366, #961, #665, #533, #721, #617, #11, #1072, #182, #1189 ) ) ;
#1240 = DIRECTION ( 'NONE',  ( 1.000000000000000000, 0.000000000000000000, 0.000000000000000000 ) ) ;
#1241 = ORIENTED_EDGE ( 'NONE', *, *, #1118, .T. ) ;
#1242 = CARTESIAN_POINT ( 'NONE',  ( 3.175006350012608003, -85.60000394073000507, 5.000000000000000000 ) ) ;
#1243 = LINE ( 'NONE', #77, #1127 ) ;
#1244 = LINE ( 'NONE', #198, #304 ) ;
#1245 = VERTEX_POINT ( 'NONE', #607 ) ;
#1246 = CARTESIAN_POINT ( 'NONE',  ( 1.675006350012608891, -3.175006350012608447, 0.000000000000000000 ) ) ;
ENDSEC;
END-ISO-10303-21;
